<svg width="753" height="761" viewBox="0 0 753 761" fill="none" xmlns="http://www.w3.org/2000/svg">
<path d="M467.355 643.459C450.339 655.433 433.631 667.216 416.915 678.989C415.964 679.66 415.017 680.617 413.959 680.794C412.144 681.099 409.861 681.517 408.51 680.689C407.563 680.108 407.275 677.392 407.659 675.873C410.06 666.366 412.773 656.939 415.306 647.466C420.932 626.426 426.49 605.368 432.12 584.329C435.558 571.484 438.714 558.546 442.713 545.876C444.702 539.574 443.795 535.74 438.446 531.423C414.378 511.998 390.726 492.058 366.904 472.327C357.687 464.693 348.414 457.127 339.181 449.512C338.156 448.666 336.945 447.86 336.326 446.753C335.576 445.41 334.675 443.51 335.117 442.329C335.531 441.223 337.569 440.188 338.969 440.075C348.088 439.342 357.221 438.687 366.362 438.344C398.812 437.124 431.292 436.487 463.71 434.708C479.044 433.866 475.895 436.867 481.281 421.656C490.32 396.127 499.368 370.601 508.369 345.058C513.719 329.876 518.918 314.64 524.381 299.499C525.007 297.765 526.902 296.489 528.209 295C529.697 296.499 531.921 297.735 532.563 299.536C541.84 325.522 550.826 351.613 560.047 377.619C566.259 395.139 572.803 412.54 579.018 430.058C580.123 433.171 582.063 434.068 584.979 434.189C598.115 434.732 611.248 435.328 624.382 435.903C655.481 437.264 686.581 438.595 717.674 440.068C719.22 440.141 721.995 441.479 721.976 442.165C721.923 444.04 721.198 446.5 719.831 447.643C698.275 465.671 676.559 483.507 654.916 501.433C641.985 512.143 629.148 522.967 616.201 533.658C613.138 536.186 612.421 538.747 613.536 542.771C622.241 574.17 630.661 605.647 639.172 637.1C642.516 649.456 645.986 661.78 649.102 674.194C649.642 676.343 648.7 678.864 648.443 681.213C646.153 680.761 643.398 680.978 641.642 679.757C616.389 662.204 591.293 644.424 566.11 626.77C554.81 618.848 543.311 611.208 532.093 603.173C528.59 600.665 526.31 602.309 523.643 604.174C504.993 617.221 486.323 630.239 467.355 643.459Z" fill="#FFD230"/>
<path d="M377 340.381C399.883 332.099 409.668 313.74 416.355 292C417.088 293.859 418.02 295.666 418.522 297.585C422.722 313.628 431.057 326.806 445.239 335.793C448.635 337.945 452.527 339.312 457.377 341.6C433.423 350.119 422.266 368.27 415.507 390.829C414.811 388.78 414.048 386.751 413.429 384.679C407.845 365.99 397.643 351.165 379.068 343.217C378.086 342.797 377.489 341.476 377 340.381Z" fill="#FED235"/>
<path d="M149.33 197.203C160.582 186.219 174.822 188.891 182.768 197.882C192.017 208.349 189.845 223.411 178.471 231.432C169.228 237.951 156.953 236.603 149.066 228.203C140.932 219.542 140.937 207.351 149.33 197.203Z" fill="#FED234"/>
<path d="M311.793 173.547C319.991 183.901 320.509 193.112 313.708 203.057C308.897 210.091 299.235 213.842 290.924 211.903C281.817 209.777 274.513 202.474 273.294 194.277C271.835 184.472 275.904 175.139 283.416 170.486C290.624 166.022 301.299 164.69 311.793 173.547Z" fill="#FED235"/>
<path d="M291.56 533.531C264.572 554.482 251.224 582.854 245.189 615.416C244.771 615.419 244.354 615.422 243.937 615.425C243.064 613.043 241.853 610.727 241.37 608.269C236.199 581.943 224.598 559.039 205.106 540.435C195.508 531.275 184.484 524.312 171.56 520.653C170.089 520.236 168.76 519.32 165.635 517.786C213.205 501.693 233.683 465.522 243.412 420.845C243.903 420.91 244.394 420.976 244.885 421.041C245.493 422.54 246.392 423.989 246.665 425.547C252.263 457.488 267.214 484.01 293.286 503.487C300.176 508.634 308.915 511.3 316.785 515.145C318.153 515.813 319.424 516.681 320.811 517.499C310.78 522.963 301.304 528.125 291.56 533.531ZM260.813 469.761C252.932 457.096 247.884 443.313 244.509 428.473C233.207 468.472 213.946 501.896 171.403 517.909C213.526 534.247 233.294 566.749 244.113 606.639C255.322 566.453 274.897 533.552 317.614 517.639C291.307 508.98 273.858 492.389 260.813 469.761Z" fill="#F9DD74"/>
<path d="M256.245 331.731C252.03 321.615 245.051 314.634 234 309.881C249.459 304.347 255.625 292.566 260.142 279C264.207 292.61 270.34 304.155 285.941 309.511C271.64 316.071 263.665 326.58 259.703 340.936C258.594 337.988 257.485 335.039 256.245 331.731Z" fill="#FDD338"/>
<path d="M135.91 330.578C143.633 336.372 145.109 342.757 140.523 349.124C137.433 353.413 131.047 354.994 125.687 352.797C120.733 350.766 118.154 344.966 119.32 338.478C120.205 333.56 124.529 330.106 130.092 330.02C131.909 329.991 133.73 330.273 135.91 330.578Z" fill="#FDD338"/>
<path d="M260.914 470.115C273.858 492.389 291.307 508.98 317.614 517.639C274.897 533.553 255.322 566.453 244.113 606.639C233.294 566.749 213.526 534.247 171.403 517.909C213.946 501.896 233.207 468.472 244.509 428.473C247.884 443.313 252.932 457.096 260.914 470.115Z" fill="#FED231"/>
</svg>
