<svg width="1920" height="994" viewBox="0 0 1920 994" fill="none" xmlns="http://www.w3.org/2000/svg">
<g clip-path="url(#clip0_13_1042)">
<path d="M806.667 822.811C809.497 824.781 811.023 826.459 812.738 829.714C814.074 836.531 812.582 841.292 809.524 847.109C808.734 850.404 808.182 853.687 807.619 857.049C804.79 857.049 801.962 857.049 799.048 857.049C798.875 856.249 798.701 855.449 798.523 854.625C797.01 847.79 797.01 847.79 794.524 841.38C792.892 837.122 793.11 833.854 794.286 829.438C797.833 823.202 800.26 822.182 806.667 822.811ZM799.405 827.919C797.032 830.346 797.032 830.346 796.071 833.442C796.252 839.098 798.566 843.367 800.952 848.214C802.524 848.214 804.095 848.214 805.714 848.214C809.258 841.233 809.258 841.233 810.595 833.442C809.229 829.745 807.692 828.228 804.762 826.125C801.82 825.834 801.82 825.834 799.405 827.919ZM801.905 851.527C801.905 852.256 801.905 852.985 801.905 853.736C802.848 853.736 803.79 853.736 804.762 853.736C804.762 853.007 804.762 852.278 804.762 851.527C803.819 851.527 802.876 851.527 801.905 851.527Z" fill="#C1F8AB" fill-opacity="0.2"/>
<path d="M1461.31 116.161C1464.14 118.13 1465.67 119.809 1467.39 123.064C1468.72 129.881 1467.23 134.642 1464.17 140.459C1463.38 143.754 1462.83 147.037 1462.27 150.399C1459.44 150.399 1456.61 150.399 1453.7 150.399C1453.52 149.599 1453.35 148.798 1453.17 147.974C1451.66 141.139 1451.66 141.139 1449.17 134.729C1447.54 130.472 1447.76 127.203 1448.93 122.788C1452.48 116.551 1454.91 115.531 1461.31 116.161ZM1454.05 121.269C1451.68 123.696 1451.68 123.696 1450.72 126.791C1450.9 132.447 1453.21 136.717 1455.6 141.563C1457.17 141.563 1458.74 141.563 1460.36 141.563C1463.91 134.582 1463.91 134.582 1465.24 126.791C1463.88 123.095 1462.34 121.577 1459.41 119.474C1456.47 119.184 1456.47 119.184 1454.05 121.269ZM1456.55 144.877C1456.55 145.605 1456.55 146.334 1456.55 147.085C1457.5 147.085 1458.44 147.085 1459.41 147.085C1459.41 146.356 1459.41 145.628 1459.41 144.877C1458.47 144.877 1457.52 144.877 1456.55 144.877Z" fill="#C1F8AB"/>
<path d="M1536.31 157.161C1539.14 159.13 1540.67 160.809 1542.39 164.064C1543.72 170.881 1542.23 175.642 1539.17 181.459C1538.38 184.754 1537.83 188.037 1537.27 191.399C1534.44 191.399 1531.61 191.399 1528.7 191.399C1528.52 190.599 1528.35 189.798 1528.17 188.974C1526.66 182.139 1526.66 182.139 1524.17 175.729C1522.54 171.472 1522.76 168.203 1523.93 163.788C1527.48 157.551 1529.91 156.531 1536.31 157.161ZM1529.05 162.269C1526.68 164.696 1526.68 164.696 1525.72 167.791C1525.9 173.447 1528.21 177.717 1530.6 182.563C1532.17 182.563 1533.74 182.563 1535.36 182.563C1538.91 175.582 1538.91 175.582 1540.24 167.791C1538.88 164.095 1537.34 162.577 1534.41 160.474C1531.47 160.184 1531.47 160.184 1529.05 162.269ZM1531.55 185.877C1531.55 186.605 1531.55 187.334 1531.55 188.085C1532.5 188.085 1533.44 188.085 1534.41 188.085C1534.41 187.356 1534.41 186.628 1534.41 185.877C1533.47 185.877 1532.52 185.877 1531.55 185.877Z" fill="#C1F8AB"/>
<path d="M1740.95 304.827C1741.58 304.827 1742.21 304.827 1742.86 304.827C1743.66 307.701 1744.45 310.577 1745.24 313.455C1745.47 314.27 1745.69 315.085 1745.93 315.925C1746.86 319.331 1747.62 322.216 1747.62 325.811C1748.25 325.811 1748.88 325.811 1749.52 325.811C1749.72 324.96 1749.91 324.108 1750.12 323.231C1750.37 322.124 1750.63 321.016 1750.89 319.875C1751.15 318.773 1751.4 317.671 1751.66 316.535C1752.38 313.662 1752.38 313.662 1753.33 311.453C1753.96 311.453 1754.59 311.453 1755.24 311.453C1755.61 312.524 1755.98 313.595 1756.37 314.698C1757.79 318.325 1757.79 318.325 1760.65 319.046C1761.38 319.092 1762.11 319.137 1762.86 319.184C1762.86 320.278 1762.86 321.371 1762.86 322.498C1757 322.606 1757 322.606 1755.24 322.498C1754.92 322.133 1754.61 321.769 1754.29 321.393C1753.96 322.497 1753.64 323.6 1753.31 324.737C1752.88 326.177 1752.45 327.616 1752.02 329.055C1751.71 330.148 1751.71 330.148 1751.38 331.262C1749.74 336.73 1749.74 336.73 1747.62 337.96C1745.73 331.035 1743.85 324.11 1741.9 316.976C1741.28 318.798 1740.65 320.62 1740 322.498C1737.49 322.498 1734.97 322.498 1732.38 322.498C1732.38 321.404 1732.38 320.311 1732.38 319.184C1733.95 318.82 1735.52 318.456 1737.14 318.08C1738.4 313.706 1739.66 309.333 1740.95 304.827Z" fill="#FFDBB0"/>
<path d="M1602.57 371C1603.2 371 1603.83 371 1604.48 371C1605.27 373.874 1606.07 376.751 1606.86 379.628C1607.08 380.444 1607.31 381.259 1607.55 382.098C1608.48 385.504 1609.24 388.389 1609.24 391.984C1609.87 391.984 1610.5 391.984 1611.14 391.984C1611.34 391.133 1611.53 390.282 1611.73 389.405C1611.99 388.297 1612.25 387.189 1612.51 386.048C1612.77 384.946 1613.02 383.844 1613.28 382.709C1614 379.836 1614 379.836 1614.95 377.627C1615.58 377.627 1616.21 377.627 1616.86 377.627C1617.23 378.697 1617.6 379.768 1617.99 380.871C1619.41 384.498 1619.41 384.498 1622.27 385.22C1623 385.265 1623.73 385.311 1624.48 385.358C1624.48 386.451 1624.48 387.545 1624.48 388.671C1618.62 388.779 1618.62 388.779 1616.86 388.671C1616.54 388.307 1616.23 387.942 1615.9 387.567C1615.58 388.67 1615.26 389.773 1614.93 390.91C1614.5 392.35 1614.07 393.789 1613.64 395.229C1613.33 396.321 1613.33 396.321 1613 397.435C1611.36 402.904 1611.36 402.904 1609.24 404.133C1607.35 397.208 1605.47 390.284 1603.52 383.149C1602.9 384.971 1602.27 386.794 1601.62 388.671C1599.1 388.671 1596.59 388.671 1594 388.671C1594 387.578 1594 386.484 1594 385.358C1595.57 384.993 1597.14 384.629 1598.76 384.253C1600.02 379.88 1601.28 375.506 1602.57 371Z" fill="#FFDBB0"/>
<path d="M515.442 81.6113C531.035 65.9808 556.255 65.8683 571.714 81.4297C573.412 79.0902 574.861 76.509 575.899 73.8541C581.085 89.0528 584.272 101.824 583.237 111.803C582.759 120.207 579.566 128.338 574.219 134.868C560.286 151.945 535.178 154.607 518.26 140.804L517.936 140.525L517.919 140.514C517.866 140.478 517.814 140.441 517.763 140.403C517.608 140.287 517.468 140.16 517.342 140.024L517.296 139.974L516.767 139.518C516.251 139.09 515.734 138.662 515.275 138.175L515.106 137.989C499.647 122.51 499.849 97.2418 515.442 81.6113ZM521.973 135.048C520.481 133.927 518.348 134.136 517.215 135.641C516.219 136.964 516.245 138.775 517.279 139.955L517.296 139.974L517.936 140.525L517.999 140.566C519.446 141.482 521.375 141.246 522.461 139.887L522.521 139.81C523.653 138.305 523.382 136.171 521.973 135.048ZM575.536 77.9763C571.528 86.7003 561.42 93.4938 552.655 95.7332C544.383 97.8801 537.136 96.3848 529.532 99.5053C512.197 106.531 512.764 127.257 522.346 131.749L522.924 132.066C522.924 132.066 529.79 130.552 536.575 128.601L537.156 128.433C539.866 127.642 542.531 126.787 544.706 125.935C555.992 121.504 568.357 110.878 572.325 98.7808C570.334 111.331 559.714 123.649 549.018 129.384C543.303 132.466 538.875 133.216 529.468 136.703C528.323 137.138 527.424 137.569 527.424 137.569C527.539 137.55 527.654 137.532 527.769 137.515L527.998 137.48L528.226 137.447C530.309 137.144 532.182 136.976 532.182 136.976C545.562 136.04 566.639 140.046 576.262 126.761C586.129 113.225 580.295 91.7849 575.536 77.9763Z" fill="#6DB33F" fill-opacity="0.2"/>
<path d="M521.965 135.057C523.374 136.18 523.645 138.313 522.513 139.818C521.38 141.322 519.247 141.531 517.755 140.41C516.264 139.289 516.075 137.154 517.208 135.649C518.34 134.145 520.474 133.936 521.965 135.057ZM575.521 77.9939C580.28 91.8003 586.112 113.236 576.247 126.771C566.625 140.053 545.551 136.048 532.173 136.984C532.173 136.984 530.3 137.152 528.217 137.455L527.99 137.488C527.799 137.517 527.607 137.546 527.415 137.577C527.415 137.577 528.314 137.147 529.459 136.711C538.865 133.225 543.292 132.475 549.006 129.394C559.701 123.659 570.319 111.343 572.311 98.7951C568.343 110.89 555.98 121.515 544.695 125.945C536.927 128.986 522.916 132.075 522.916 132.075L522.338 131.758C512.758 127.267 512.19 106.544 529.523 99.5195C537.127 96.3994 544.372 97.8945 552.644 95.7479C561.407 93.5089 571.514 86.7165 575.521 77.9939Z" fill="white" fill-opacity="0.2"/>
<path d="M60.7287 491.181C58.1212 489.806 54.7469 489.874 52.1758 491.338C39.2975 498.571 26.4189 505.806 13.5381 513.036C11.0308 514.38 9.36393 517.061 9.4286 519.81L10.005 562.076C10.025 564.879 11.8523 567.521 14.4599 568.754C18.2135 570.623 21.8637 572.69 25.6829 574.429C30.0948 576.453 35.585 576.818 39.9918 574.542C43.5685 572.657 45.113 568.582 45.0576 564.865C44.8965 550.916 44.6819 536.967 44.4982 523.018C44.5754 522.396 44.0898 521.743 43.3979 521.77C41.7396 521.775 40.0796 521.816 38.4217 521.857C37.7945 521.811 37.1899 522.331 37.2457 522.945C37.4125 536.804 37.6281 550.667 37.7993 564.528C37.8616 566.445 36.5609 568.312 34.6785 568.994C30.3308 570.57 17.7552 562.89 17.7552 562.89C17.2948 562.691 16.9977 562.212 17.036 561.729C16.8458 547.785 16.6579 533.84 16.4655 519.898C16.3949 519.337 16.7426 518.824 17.2679 518.585C30.1041 511.394 42.9334 504.185 55.7696 496.99C56.2149 496.689 56.841 496.678 57.2931 496.964C70.319 503.683 83.3407 510.411 96.3688 517.128C96.9021 517.347 97.2486 517.856 97.2023 518.417C97.3902 532.359 97.587 546.304 97.7684 560.247C97.8134 560.74 97.5588 561.222 97.0903 561.448C84.3743 568.599 71.5093 575.53 58.912 582.88C58.3623 583.2 57.7396 583.563 57.1143 583.233C53.7515 581.49 50.4281 579.676 47.076 577.916C46.7113 577.702 46.2494 577.616 45.8754 577.869C44.3942 578.665 42.9995 579.312 41.2955 580.007C38.9023 580.981 39.2918 581.355 41.4786 582.55C45.399 584.63 49.3258 586.701 53.2462 588.784C55.8291 590.298 59.2724 590.346 61.8967 588.855C74.7773 581.63 87.6538 574.398 100.537 567.173C103.103 565.839 104.866 563.142 104.81 560.336L104.233 518.071C104.222 515.377 102.548 512.805 100.081 511.533C86.9665 504.742 73.8457 497.967 60.7287 491.181Z" fill="#8CC84B" fill-opacity="0.2"/>
<path d="M80.7402 522.555C75.611 519.987 69.5503 519.956 63.8955 520.408C59.8123 520.878 55.5271 522.059 52.5875 524.977C49.5715 527.911 48.9698 532.572 50.4723 536.303C51.5484 538.94 54.1897 540.618 56.9092 541.482C60.4126 542.621 64.0801 542.926 67.7486 543.23C71.0948 543.508 74.442 543.786 77.667 544.698C78.9847 545.098 80.5214 545.72 80.9423 547.107C81.336 548.752 80.9552 550.679 79.5984 551.852C75.2848 555.303 63.1507 555.009 58.8071 552.435C57.0501 551.336 56.2724 549.349 55.9412 547.448C55.8992 546.854 55.4021 546.318 54.7423 546.375C53.0885 546.386 51.4349 546.421 49.7814 546.464C49.2039 546.427 48.6096 546.839 48.5857 547.415C48.365 556.156 56.6274 559.813 64.3418 560.51C68.7481 560.839 73.2452 560.733 77.5663 559.731C80.8141 558.946 84.0623 557.552 86.2714 555.059C88.9962 552.029 89.4793 547.584 88.1886 543.895C87.2028 541.144 84.469 539.417 81.6867 538.554C77.9028 537.361 73.4297 536.765 70.0139 536.51C65.0489 536.14 59.1589 536.436 57.712 533.278C57.1296 531.622 57.5776 529.543 59.1315 528.489C63.2425 525.664 71.6906 525.874 76.0148 527.849C78.0006 528.778 79.1708 530.739 79.6699 532.732C79.7654 533.318 80.1785 533.924 80.8746 533.885C82.5174 533.887 84.1594 533.834 85.8014 533.806C86.366 533.834 86.9794 533.512 87.0819 532.945C86.9552 528.764 84.7108 524.523 80.7402 522.555Z" fill="#8CC84B" fill-opacity="0.2"/>
<path d="M414.305 504.915C414.305 499.066 409.468 494.323 403.5 494.323C397.533 494.323 392.695 499.066 392.695 504.915C392.695 510.766 397.533 515.508 403.5 515.508C409.468 515.508 414.305 510.766 414.305 504.915Z" fill="#53C1DE" fill-opacity="0.2"/>
<path fill-rule="evenodd" clip-rule="evenodd" d="M438.592 485.25C440.873 476.161 443.741 459.306 433.631 453.591C423.567 447.901 410.471 458.804 403.556 465.348C396.661 458.869 383.197 448.013 373.095 453.746C363.036 459.455 366.138 476.031 368.47 485.177C359.086 487.79 343 493.417 343 504.915C343 516.38 359.069 522.503 368.398 525.113C366.057 534.31 363.11 550.649 373.183 556.345C383.322 562.077 396.744 551.48 403.723 544.864C410.683 551.446 423.653 562.113 433.719 556.401C443.816 550.671 441.186 534.042 438.853 524.842C447.896 522.226 464 516.237 464 504.915C464 493.528 447.828 487.855 438.592 485.25ZM437.445 519.967C435.914 515.215 433.847 510.161 431.318 504.94C433.732 499.843 435.719 494.854 437.207 490.132C443.978 492.057 458.831 496.455 458.831 504.915C458.831 513.455 444.578 517.894 437.445 519.967ZM431.128 552.016C423.618 556.277 412.462 546.077 407.323 541.229C410.733 537.573 414.14 533.323 417.465 528.604C423.315 528.095 428.841 527.263 433.853 526.128C435.495 532.635 438.671 547.735 431.128 552.016ZM375.765 551.955C368.254 547.709 371.687 533.129 373.41 526.354C378.366 527.429 383.852 528.203 389.716 528.669C393.063 533.287 396.569 537.531 400.102 541.249C395.737 545.388 383.311 556.22 375.765 551.955ZM348.169 504.915C348.169 496.344 362.933 491.977 369.858 490.058C371.373 494.886 373.359 499.934 375.756 505.039C373.328 510.219 371.313 515.347 369.785 520.232C363.182 518.379 348.169 513.492 348.169 504.915ZM375.685 458.131C383.226 453.852 394.928 464.274 399.934 468.965C396.419 472.665 392.945 476.878 389.627 481.469C383.936 481.986 378.488 482.817 373.48 483.929C371.601 476.552 368.152 462.406 375.685 458.131ZM421.163 486.977C425.024 487.454 428.723 488.09 432.196 488.867C431.153 492.143 429.854 495.569 428.323 499.081C426.104 494.954 423.723 490.91 421.163 486.977ZM403.558 472.586C405.942 475.118 408.33 477.945 410.679 481.013C405.914 480.792 401.142 480.791 396.377 481.009C398.728 477.97 401.136 475.147 403.558 472.586ZM378.721 499.077C377.216 495.578 375.928 492.137 374.876 488.814C378.329 488.056 382.01 487.437 385.846 486.968C383.279 490.892 380.902 494.935 378.721 499.077ZM385.956 523.224C381.994 522.791 378.256 522.203 374.805 521.467C375.873 518.085 377.19 514.57 378.727 510.995C380.938 515.181 383.351 519.262 385.956 523.224ZM403.701 537.602C401.251 535.011 398.807 532.144 396.421 529.061C401.212 529.246 406.013 529.246 410.804 529.037C408.448 532.176 406.069 535.046 403.701 537.602ZM428.372 510.813C429.99 514.427 431.353 517.923 432.436 521.247C428.927 522.032 425.14 522.664 421.149 523.134C423.727 519.126 426.147 515.019 428.372 510.813ZM414.581 523.748C407.251 524.261 399.876 524.256 392.545 523.79C388.379 517.824 384.67 511.55 381.469 505.037C384.655 498.537 388.336 492.275 392.483 486.319C399.82 485.776 407.202 485.774 414.539 486.322C418.65 492.278 422.326 498.524 425.585 504.965C422.364 511.461 418.663 517.736 414.581 523.748ZM431.049 457.981C438.592 462.246 435.235 477.394 433.587 483.982C428.567 482.846 423.115 482.001 417.408 481.476C414.083 476.835 410.638 472.615 407.18 468.962C412.25 464.17 423.578 453.757 431.049 457.981Z" fill="#53C1DE" fill-opacity="0.2"/>
<path d="M72.5559 104.818C72.5559 104.818 67.5789 107.769 76.1668 108.551C86.5706 109.489 91.8789 109.211 103.304 106.853C103.304 106.853 106.336 108.633 110.559 110.141C85.0182 121.425 52.4602 110.745 72.5559 104.818ZM69.2536 90.8659C69.2536 90.8659 63.6818 95.0468 72.2748 95.7326C83.3871 96.6164 92.1534 96.5228 107.287 93.3506C107.287 93.3506 109.409 95.3832 112.722 96.4493C81.7921 105.966 47.1293 98.533 69.2536 90.8659Z" fill="#5382A1" fill-opacity="0.2"/>
<path d="M95.2907 66.3516C101.713 73.3565 93.7858 79.9503 93.7858 79.9503C93.7858 79.9503 109.783 71.4821 102.272 61.4604C95.2568 52.1145 89.9073 47.5108 118.374 30.6445C118.374 30.6441 73.5191 42.5867 95.2907 66.3516Z" fill="#E76F00" fill-opacity="0.2"/>
<path d="M129.93 113.982C129.93 113.982 133.674 116.889 125.909 119.363C111.143 124.061 64.3047 126.375 51.2234 121.115C46.521 119.225 55.2626 116.28 58.0158 115.643C60.887 114.972 62.5333 115.051 62.5333 115.051C57.2875 111.58 28.9838 122.793 48.2117 125.427C100.649 132.615 143.578 119.678 129.93 113.982ZM74.6209 76.2062C74.6209 76.2062 50.8532 82.2401 66.2701 83.9233C72.7796 84.6361 85.7339 84.1702 97.7906 82.9273C107.644 81.9062 117.528 79.969 117.528 79.969C117.528 79.969 114.067 81.4976 111.571 83.229C87.4424 89.9592 40.6543 88.0533 54.0389 81.4081C65.3584 75.7919 74.6209 76.2062 74.6209 76.2062ZM117.651 98.651C142.105 85.6412 130.589 73.8781 122.668 75.6633C120.726 76.1001 119.863 76.4613 119.863 76.4613C119.863 76.4613 120.572 75.3404 121.946 74.8326C137.589 69.1058 149.921 90.1579 117.163 99.2913C117.163 99.2913 117.541 98.951 117.651 98.651Z" fill="#5382A1" fill-opacity="0.2"/>
<path d="M101.631 4.65427C101.631 4.65427 115.452 17.7311 89.0719 38.8475C67.9176 55.7857 84.5094 64.8379 89.4957 75.476C76.9044 64.7442 67.6448 55.259 73.6737 46.121C82.5225 32.7074 107.394 25.7689 101.631 4.65427Z" fill="#E76F00" fill-opacity="0.2"/>
<path d="M77.771 133.437C101.386 134.404 137.596 131.377 138.325 120.569C138.325 120.569 136.725 124.694 118.911 128.316C98.8135 132.399 73.9666 132.491 59.2048 130.451C59.2055 130.451 62.2502 132.8 77.771 133.437Z" fill="#5382A1" fill-opacity="0.2"/>
<g clip-path="url(#clip1_13_1042)">
<path d="M555.25 570H512.75C502.395 570 494 578.395 494 588.75V631.25C494 641.605 502.395 650 512.75 650H555.25C565.605 650 574 641.605 574 631.25V588.75C574 578.395 565.605 570 555.25 570Z" fill="#F03C2E" fill-opacity="0.2"/>
<mask id="mask0_13_1042" style="mask-type:luminance" maskUnits="userSpaceOnUse" x="502" y="578" width="64" height="64">
<path d="M565.25 578.75H502.75V641.25H565.25V578.75Z" fill="white"/>
</mask>
<g mask="url(#mask0_13_1042)">
<path d="M564.07 607.217L536.783 579.93C536.41 579.556 535.966 579.259 535.478 579.057C534.989 578.855 534.466 578.75 533.937 578.75C533.409 578.75 532.886 578.855 532.397 579.057C531.909 579.259 531.465 579.556 531.092 579.93L525.428 585.594L532.615 592.781C534.287 592.195 536.201 592.596 537.533 593.928C538.167 594.563 538.61 595.364 538.811 596.238C539.011 597.113 538.962 598.027 538.668 598.875L545.596 605.803C547.271 605.225 549.205 605.597 550.543 606.939C550.988 607.384 551.341 607.912 551.581 608.494C551.822 609.075 551.946 609.698 551.946 610.327C551.945 610.956 551.821 611.579 551.581 612.16C551.34 612.741 550.987 613.269 550.542 613.714C550.097 614.159 549.569 614.511 548.988 614.752C548.406 614.993 547.784 615.117 547.155 615.116C546.526 615.116 545.902 614.992 545.321 614.752C544.74 614.511 544.212 614.158 543.767 613.713C542.361 612.307 542.014 610.236 542.725 608.504L536.264 602.043V619.045C536.733 619.277 537.161 619.583 537.533 619.951C537.978 620.396 538.331 620.924 538.571 621.505C538.812 622.086 538.936 622.709 538.936 623.338C538.936 623.967 538.812 624.59 538.571 625.171C538.331 625.752 537.978 626.28 537.533 626.725C537.088 627.169 536.56 627.522 535.979 627.763C535.398 628.003 534.775 628.127 534.146 628.127C533.517 628.127 532.895 628.003 532.314 627.763C531.732 627.522 531.204 627.169 530.76 626.725C530.314 626.28 529.961 625.752 529.72 625.171C529.479 624.59 529.355 623.967 529.355 623.338C529.355 622.709 529.479 622.086 529.72 621.505C529.961 620.923 530.314 620.396 530.76 619.951C531.222 619.49 531.736 619.141 532.328 618.906V601.746C531.758 601.512 531.222 601.166 530.76 600.701C530.087 600.029 529.63 599.173 529.446 598.24C529.263 597.307 529.361 596.341 529.728 595.465L522.639 588.379L503.928 607.07C503.554 607.444 503.257 607.888 503.054 608.376C502.852 608.865 502.748 609.388 502.748 609.917C502.748 610.446 502.852 610.969 503.054 611.458C503.257 611.946 503.554 612.39 503.928 612.764L531.217 640.049C531.59 640.422 532.034 640.719 532.522 640.922C533.011 641.124 533.534 641.228 534.062 641.228C534.591 641.228 535.114 641.124 535.603 640.922C536.091 640.719 536.535 640.422 536.908 640.049L564.07 612.93C564.444 612.556 564.741 612.112 564.944 611.624C565.146 611.135 565.25 610.612 565.25 610.083C565.25 609.554 565.146 609.031 564.944 608.542C564.741 608.054 564.444 607.61 564.07 607.236" fill="white" fill-opacity="0.2"/>
</g>
</g>
<g clip-path="url(#clip2_13_1042)">
<path d="M195.562 304H142.438C129.493 304 119 314.493 119 327.438V380.562C119 393.507 129.493 404 142.438 404H195.562C208.507 404 219 393.507 219 380.562V327.438C219 314.493 208.507 304 195.562 304Z" fill="#242938" fill-opacity="0.3"/>
<path d="M138.202 343.159H149.299C152.556 343.186 154.916 344.125 156.38 345.974C157.843 347.824 158.326 350.349 157.829 353.552C157.636 355.015 157.208 356.45 156.545 357.858C155.91 359.266 155.027 360.535 153.895 361.667C152.515 363.102 151.038 364.013 149.465 364.4C147.891 364.787 146.263 364.98 144.579 364.98H139.61L138.037 372.847H132.281L138.202 343.159ZM143.047 347.879L140.562 360.301C140.728 360.328 140.894 360.342 141.059 360.342C141.252 360.342 141.446 360.342 141.639 360.342C144.289 360.37 146.498 360.108 148.264 359.556C150.03 358.976 151.218 356.961 151.825 353.51C152.322 350.612 151.825 348.942 150.334 348.5C148.871 348.059 147.036 347.852 144.827 347.879C144.496 347.906 144.179 347.92 143.875 347.92C143.599 347.92 143.309 347.92 143.005 347.92L143.047 347.879Z" fill="white" fill-opacity="0.3"/>
<path d="M164.385 335.25H170.099L168.484 343.159H173.619C176.434 343.214 178.532 343.794 179.913 344.898C181.32 346.002 181.734 348.1 181.155 351.191L178.38 364.98H172.584L175.234 351.812C175.509 350.432 175.427 349.452 174.985 348.873C174.544 348.293 173.591 348.003 172.128 348.003L167.532 347.962L164.137 364.98H158.423L164.385 335.25Z" fill="white" fill-opacity="0.3"/>
<path d="M187.291 343.159H198.387C201.645 343.186 204.005 344.125 205.468 345.974C206.931 347.824 207.414 350.349 206.917 353.552C206.724 355.015 206.296 356.45 205.634 357.858C204.998 359.266 204.116 360.535 202.984 361.667C201.603 363.102 200.127 364.013 198.553 364.4C196.98 364.787 195.351 364.98 193.667 364.98H188.698L187.125 372.847H181.37L187.291 343.159ZM192.135 347.879L189.651 360.301C189.816 360.328 189.982 360.342 190.148 360.342C190.341 360.342 190.534 360.342 190.727 360.342C193.377 360.37 195.586 360.108 197.352 359.556C199.119 358.976 200.306 356.961 200.913 353.51C201.41 350.612 200.913 348.942 199.423 348.5C197.959 348.059 196.124 347.852 193.916 347.879C193.584 347.906 193.267 347.92 192.963 347.92C192.687 347.92 192.398 347.92 192.094 347.92L192.135 347.879Z" fill="white" fill-opacity="0.3"/>
</g>
<g clip-path="url(#clip3_13_1042)">
<path d="M1429.25 551H1386.75C1376.39 551 1368 559.395 1368 569.75V612.25C1368 622.605 1376.39 631 1386.75 631H1429.25C1439.61 631 1448 622.605 1448 612.25V569.75C1448 559.395 1439.61 551 1429.25 551Z" fill="#E14E1D" fill-opacity="0.3"/>
<path d="M1383 562.875L1385.69 593.06H1420.29L1419.13 606.007L1407.99 609.019L1396.87 606.012L1396.13 597.698H1386.11L1387.54 613.724L1407.98 619.403L1428.46 613.724L1431.2 583.08H1394.82L1393.91 572.858H1432.08H1432.11L1433 562.875H1383Z" fill="white" fill-opacity="0.3"/>
<path d="M1408 562.875H1383L1385.69 593.06H1408V583.08H1394.82L1393.91 572.858H1408V562.875Z" fill="#EBEBEB" fill-opacity="0.3"/>
<path d="M1408 609.014L1407.99 609.019L1396.87 606.011L1396.13 597.698H1386.11L1387.54 613.724L1407.98 619.402L1408 619.398V609.014Z" fill="#EBEBEB" fill-opacity="0.3"/>
</g>
</g>
<defs>
<clipPath id="clip0_13_1042">
<rect width="1920" height="994" fill="white"/>
</clipPath>
<clipPath id="clip1_13_1042">
<rect width="80" height="80" fill="white" transform="translate(494 570)"/>
</clipPath>
<clipPath id="clip2_13_1042">
<rect width="100" height="100" fill="white" transform="translate(119 304)"/>
</clipPath>
<clipPath id="clip3_13_1042">
<rect width="80" height="80" fill="white" transform="translate(1368 551)"/>
</clipPath>
</defs>
</svg>
