<svg width="1920" height="994" viewBox="0 0 1920 994" fill="none" xmlns="http://www.w3.org/2000/svg">
<path d="M806.667 822.811C809.497 824.78 811.023 826.459 812.738 829.714C814.074 836.531 812.582 841.292 809.524 847.109C808.734 850.404 808.182 853.687 807.619 857.049C804.79 857.049 801.962 857.049 799.048 857.049C798.875 856.249 798.701 855.449 798.523 854.624C797.01 847.789 797.01 847.789 794.524 841.38C792.892 837.122 793.11 833.853 794.286 829.438C797.833 823.201 800.26 822.182 806.667 822.811ZM799.405 827.919C797.032 830.346 797.032 830.346 796.071 833.441C796.252 839.098 798.566 843.367 800.952 848.213C802.524 848.213 804.095 848.213 805.714 848.213C809.258 841.232 809.258 841.232 810.595 833.441C809.229 829.745 807.692 828.228 804.762 826.124C801.82 825.834 801.82 825.834 799.405 827.919ZM801.905 851.527C801.905 852.256 801.905 852.985 801.905 853.736C802.848 853.736 803.79 853.736 804.762 853.736C804.762 853.007 804.762 852.278 804.762 851.527C803.819 851.527 802.876 851.527 801.905 851.527Z" fill="#C1F8AB" fill-opacity="0.2"/>
<path d="M1461.31 116.161C1464.14 118.13 1465.67 119.809 1467.39 123.064C1468.72 129.881 1467.23 134.642 1464.17 140.459C1463.38 143.754 1462.83 147.037 1462.27 150.399C1459.44 150.399 1456.61 150.399 1453.7 150.399C1453.52 149.599 1453.35 148.798 1453.17 147.974C1451.66 141.139 1451.66 141.139 1449.17 134.729C1447.54 130.472 1447.76 127.203 1448.93 122.788C1452.48 116.551 1454.91 115.531 1461.31 116.161ZM1454.05 121.269C1451.68 123.696 1451.68 123.696 1450.72 126.791C1450.9 132.447 1453.21 136.717 1455.6 141.563C1457.17 141.563 1458.74 141.563 1460.36 141.563C1463.91 134.582 1463.91 134.582 1465.24 126.791C1463.88 123.095 1462.34 121.577 1459.41 119.474C1456.47 119.184 1456.47 119.184 1454.05 121.269ZM1456.55 144.877C1456.55 145.605 1456.55 146.334 1456.55 147.085C1457.5 147.085 1458.44 147.085 1459.41 147.085C1459.41 146.356 1459.41 145.628 1459.41 144.877C1458.47 144.877 1457.52 144.877 1456.55 144.877Z" fill="#C1F8AB"/>
<path d="M1536.31 157.161C1539.14 159.13 1540.67 160.809 1542.39 164.064C1543.72 170.881 1542.23 175.642 1539.17 181.459C1538.38 184.754 1537.83 188.037 1537.27 191.399C1534.44 191.399 1531.61 191.399 1528.7 191.399C1528.52 190.599 1528.35 189.798 1528.17 188.974C1526.66 182.139 1526.66 182.139 1524.17 175.729C1522.54 171.472 1522.76 168.203 1523.93 163.788C1527.48 157.551 1529.91 156.531 1536.31 157.161ZM1529.05 162.269C1526.68 164.696 1526.68 164.696 1525.72 167.791C1525.9 173.447 1528.21 177.717 1530.6 182.563C1532.17 182.563 1533.74 182.563 1535.36 182.563C1538.91 175.582 1538.91 175.582 1540.24 167.791C1538.88 164.095 1537.34 162.577 1534.41 160.474C1531.47 160.184 1531.47 160.184 1529.05 162.269ZM1531.55 185.877C1531.55 186.605 1531.55 187.334 1531.55 188.085C1532.5 188.085 1533.44 188.085 1534.41 188.085C1534.41 187.356 1534.41 186.628 1534.41 185.877C1533.47 185.877 1532.52 185.877 1531.55 185.877Z" fill="#C1F8AB"/>
<path d="M1740.95 304.827C1741.58 304.827 1742.21 304.827 1742.86 304.827C1743.66 307.701 1744.45 310.577 1745.24 313.455C1745.47 314.27 1745.69 315.085 1745.93 315.925C1746.86 319.331 1747.62 322.216 1747.62 325.811C1748.25 325.811 1748.88 325.811 1749.52 325.811C1749.72 324.96 1749.91 324.108 1750.12 323.231C1750.37 322.124 1750.63 321.016 1750.89 319.875C1751.15 318.773 1751.4 317.671 1751.66 316.535C1752.38 313.662 1752.38 313.662 1753.33 311.453C1753.96 311.453 1754.59 311.453 1755.24 311.453C1755.61 312.524 1755.98 313.595 1756.37 314.698C1757.79 318.325 1757.79 318.325 1760.65 319.046C1761.38 319.092 1762.11 319.137 1762.86 319.184C1762.86 320.278 1762.86 321.371 1762.86 322.498C1757 322.606 1757 322.606 1755.24 322.498C1754.92 322.133 1754.61 321.769 1754.29 321.393C1753.96 322.497 1753.64 323.6 1753.31 324.737C1752.88 326.177 1752.45 327.616 1752.02 329.055C1751.71 330.148 1751.71 330.148 1751.38 331.262C1749.74 336.73 1749.74 336.73 1747.62 337.96C1745.73 331.035 1743.85 324.11 1741.9 316.976C1741.28 318.798 1740.65 320.62 1740 322.498C1737.49 322.498 1734.97 322.498 1732.38 322.498C1732.38 321.404 1732.38 320.311 1732.38 319.184C1733.95 318.82 1735.52 318.456 1737.14 318.08C1738.4 313.706 1739.66 309.333 1740.95 304.827Z" fill="#FFDBB0"/>
<path d="M1602.57 371C1603.2 371 1603.83 371 1604.48 371C1605.27 373.874 1606.07 376.751 1606.86 379.628C1607.08 380.444 1607.31 381.259 1607.55 382.098C1608.48 385.504 1609.24 388.389 1609.24 391.984C1609.87 391.984 1610.5 391.984 1611.14 391.984C1611.34 391.133 1611.53 390.282 1611.73 389.405C1611.99 388.297 1612.25 387.189 1612.51 386.048C1612.77 384.946 1613.02 383.844 1613.28 382.709C1614 379.836 1614 379.836 1614.95 377.627C1615.58 377.627 1616.21 377.627 1616.86 377.627C1617.23 378.697 1617.6 379.768 1617.99 380.871C1619.41 384.498 1619.41 384.498 1622.27 385.22C1623 385.265 1623.73 385.311 1624.48 385.358C1624.48 386.451 1624.48 387.545 1624.48 388.671C1618.62 388.779 1618.62 388.779 1616.86 388.671C1616.54 388.307 1616.23 387.942 1615.9 387.567C1615.58 388.67 1615.26 389.773 1614.93 390.91C1614.5 392.35 1614.07 393.789 1613.64 395.229C1613.33 396.321 1613.33 396.321 1613 397.435C1611.36 402.904 1611.36 402.904 1609.24 404.133C1607.35 397.208 1605.47 390.284 1603.52 383.149C1602.9 384.971 1602.27 386.794 1601.62 388.671C1599.1 388.671 1596.59 388.671 1594 388.671C1594 387.578 1594 386.484 1594 385.358C1595.57 384.993 1597.14 384.629 1598.76 384.253C1600.02 379.88 1601.28 375.506 1602.57 371Z" fill="#FFDBB0"/>
<path d="M725.442 104.611C741.035 88.9809 766.255 88.8684 781.714 104.43C783.412 102.09 784.861 99.5091 785.899 96.8541C791.085 112.053 794.272 124.824 793.237 134.803C792.759 143.207 789.566 151.338 784.219 157.868C770.286 174.946 745.178 177.607 728.26 163.804L727.936 163.525L727.919 163.514C727.866 163.478 727.814 163.441 727.763 163.403C727.608 163.287 727.468 163.16 727.342 163.024L727.296 162.974L726.767 162.518C726.251 162.09 725.734 161.662 725.275 161.175L725.106 160.989C709.647 145.51 709.849 120.242 725.442 104.611ZM731.973 158.048C730.481 156.927 728.348 157.136 727.215 158.641C726.219 159.964 726.245 161.775 727.28 162.955L727.296 162.974L727.936 163.525L727.999 163.566C729.446 164.482 731.375 164.246 732.461 162.887L732.521 162.81C733.653 161.305 733.382 159.171 731.973 158.048ZM785.536 100.976C781.529 109.7 771.42 116.494 762.655 118.733C754.383 120.88 747.136 119.385 739.532 122.505C722.197 129.531 722.764 150.257 732.346 154.749L732.924 155.066C732.924 155.066 739.79 153.553 746.575 151.601L747.156 151.433C749.866 150.642 752.531 149.787 754.706 148.935C765.992 144.504 778.357 133.878 782.325 121.781C780.334 134.331 769.714 146.649 759.018 152.384C753.303 155.466 748.875 156.216 739.468 159.703C738.323 160.138 737.424 160.569 737.424 160.569C737.539 160.55 737.654 160.532 737.769 160.515L737.998 160.48L738.226 160.447C740.309 160.144 742.182 159.976 742.182 159.976C755.562 159.04 776.639 163.046 786.262 149.761C796.129 136.225 790.295 114.785 785.536 100.976Z" fill="#6DB33F" fill-opacity="0.2"/>
<path d="M731.965 158.057C733.374 159.179 733.645 161.313 732.513 162.818C731.38 164.322 729.247 164.531 727.755 163.41C726.264 162.289 726.075 160.154 727.208 158.649C728.34 157.145 730.474 156.936 731.965 158.057ZM785.521 100.994C790.28 114.8 796.112 136.236 786.247 149.771C776.625 163.053 755.551 159.048 742.173 159.984C742.173 159.984 740.3 160.152 738.218 160.455L737.99 160.488C737.799 160.516 737.607 160.546 737.416 160.576C737.416 160.576 738.314 160.146 739.459 159.711C748.865 156.225 753.292 155.474 759.006 152.394C769.701 146.659 780.319 134.343 782.311 121.795C778.343 133.89 765.98 144.514 754.695 148.945C746.927 151.986 732.916 155.075 732.916 155.075L732.338 154.758C722.758 150.267 722.19 129.544 739.523 122.519C747.127 119.399 754.372 120.894 762.644 118.748C771.407 116.509 781.514 109.716 785.521 100.994Z" fill="white" fill-opacity="0.2"/>
<path d="M163.729 567.181C161.121 565.806 157.747 565.874 155.176 567.338C142.298 574.571 129.419 581.806 116.538 589.036C114.031 590.38 112.364 593.061 112.429 595.81L113.005 638.076C113.025 640.879 114.852 643.521 117.46 644.754C121.213 646.623 124.864 648.69 128.683 650.429C133.095 652.453 138.585 652.818 142.992 650.542C146.569 648.657 148.113 644.582 148.058 640.865C147.897 626.916 147.682 612.967 147.498 599.018C147.575 598.396 147.09 597.743 146.398 597.77C144.74 597.775 143.08 597.816 141.422 597.857C140.794 597.811 140.19 598.331 140.246 598.945C140.412 612.804 140.628 626.667 140.799 640.528C140.862 642.445 139.561 644.312 137.678 644.994C133.331 646.57 120.755 638.89 120.755 638.89C120.295 638.691 119.998 638.212 120.036 637.729C119.846 623.785 119.658 609.84 119.465 595.898C119.395 595.337 119.743 594.824 120.268 594.585C133.104 587.394 145.933 580.185 158.77 572.99C159.215 572.689 159.841 572.678 160.293 572.964C173.319 579.683 186.341 586.411 199.369 593.128C199.902 593.347 200.249 593.856 200.202 594.417C200.39 608.359 200.587 622.304 200.768 636.247C200.813 636.74 200.559 637.222 200.09 637.448C187.374 644.599 174.509 651.53 161.912 658.88C161.362 659.2 160.74 659.563 160.114 659.233C156.751 657.49 153.428 655.676 150.076 653.916C149.711 653.702 149.249 653.616 148.875 653.869C147.394 654.665 146 655.312 144.295 656.007C141.902 656.981 142.292 657.355 144.479 658.55C148.399 660.63 152.326 662.701 156.246 664.784C158.829 666.298 162.272 666.346 164.897 664.855C177.777 657.63 190.654 650.398 203.537 643.173C206.103 641.839 207.866 639.142 207.81 636.336L207.233 594.071C207.222 591.377 205.548 588.805 203.081 587.533C189.966 580.742 176.846 573.967 163.729 567.181Z" fill="#8CC84B" fill-opacity="0.2"/>
<path d="M183.74 598.555C178.611 595.986 172.55 595.956 166.896 596.408C162.812 596.877 158.527 598.058 155.588 600.977C152.572 603.911 151.97 608.572 153.472 612.303C154.548 614.939 157.19 616.618 159.909 617.482C163.413 618.621 167.08 618.925 170.749 619.23C174.095 619.508 177.442 619.786 180.667 620.697C181.985 621.098 183.521 621.72 183.942 623.107C184.336 624.752 183.955 626.679 182.598 627.852C178.285 631.303 166.151 631.009 161.807 628.435C160.05 627.336 159.272 625.349 158.941 623.447C158.899 622.854 158.402 622.318 157.742 622.375C156.089 622.386 154.435 622.421 152.782 622.464C152.204 622.427 151.61 622.839 151.586 623.415C151.365 632.156 159.627 635.813 167.342 636.51C171.748 636.839 176.245 636.733 180.566 635.73C183.814 634.946 187.062 633.552 189.271 631.059C191.996 628.029 192.479 623.583 191.189 619.895C190.203 617.143 187.469 615.417 184.687 614.554C180.903 613.361 176.43 612.765 173.014 612.51C168.049 612.139 162.159 612.436 160.712 609.278C160.13 607.621 160.578 605.543 162.132 604.489C166.243 601.664 174.691 601.874 179.015 603.849C181.001 604.778 182.171 606.739 182.67 608.731C182.765 609.318 183.179 609.924 183.875 609.885C185.517 609.887 187.159 609.834 188.801 609.806C189.366 609.834 189.98 609.511 190.082 608.945C189.955 604.764 187.711 600.523 183.74 598.555Z" fill="#8CC84B" fill-opacity="0.2"/>
<path d="M464.305 215.915C464.305 210.066 459.468 205.323 453.5 205.323C447.533 205.323 442.695 210.066 442.695 215.915C442.695 221.765 447.533 226.508 453.5 226.508C459.468 226.508 464.305 221.765 464.305 215.915Z" fill="#53C1DE" fill-opacity="0.2"/>
<path fill-rule="evenodd" clip-rule="evenodd" d="M488.592 196.25C490.873 187.161 493.741 170.306 483.631 164.591C473.567 158.901 460.471 169.804 453.556 176.348C446.661 169.869 433.197 159.013 423.095 164.746C413.036 170.455 416.138 187.031 418.47 196.177C409.086 198.79 393 204.417 393 215.915C393 227.38 409.069 233.503 418.398 236.113C416.057 245.31 413.11 261.649 423.183 267.345C433.322 273.077 446.744 262.48 453.723 255.864C460.683 262.446 473.653 273.113 483.719 267.401C493.816 261.671 491.186 245.042 488.853 235.842C497.896 233.226 514 227.237 514 215.915C514 204.528 497.828 198.855 488.592 196.25ZM487.445 230.967C485.914 226.215 483.847 221.161 481.318 215.94C483.732 210.843 485.719 205.854 487.207 201.132C493.978 203.057 508.831 207.455 508.831 215.915C508.831 224.455 494.578 228.894 487.445 230.967ZM481.128 263.016C473.618 267.277 462.462 257.077 457.323 252.229C460.733 248.573 464.14 244.323 467.465 239.604C473.315 239.095 478.841 238.263 483.853 237.128C485.495 243.635 488.671 258.735 481.128 263.016ZM425.765 262.955C418.254 258.709 421.687 244.129 423.41 237.354C428.366 238.429 433.852 239.203 439.716 239.669C443.063 244.287 446.569 248.531 450.102 252.249C445.737 256.388 433.311 267.22 425.765 262.955ZM398.169 215.915C398.169 207.344 412.933 202.977 419.858 201.058C421.373 205.886 423.359 210.934 425.756 216.039C423.328 221.219 421.313 226.347 419.785 231.232C413.182 229.379 398.169 224.492 398.169 215.915ZM425.685 169.131C433.226 164.852 444.928 175.274 449.934 179.965C446.419 183.665 442.945 187.878 439.627 192.469C433.936 192.986 428.488 193.817 423.48 194.929C421.601 187.552 418.152 173.406 425.685 169.131ZM471.163 197.977C475.024 198.454 478.723 199.09 482.196 199.867C481.153 203.143 479.854 206.569 478.323 210.081C476.104 205.954 473.723 201.91 471.163 197.977ZM453.558 183.586C455.942 186.118 458.33 188.945 460.679 192.013C455.914 191.792 451.142 191.791 446.377 192.009C448.728 188.97 451.136 186.147 453.558 183.586ZM428.721 210.077C427.216 206.578 425.928 203.137 424.876 199.814C428.329 199.056 432.01 198.437 435.846 197.968C433.279 201.892 430.902 205.935 428.721 210.077ZM435.956 234.224C431.994 233.791 428.256 233.203 424.805 232.467C425.873 229.085 427.19 225.57 428.727 221.995C430.938 226.181 433.351 230.262 435.956 234.224ZM453.701 248.602C451.251 246.011 448.807 243.144 446.421 240.061C451.212 240.246 456.013 240.246 460.804 240.037C458.448 243.176 456.069 246.046 453.701 248.602ZM478.372 221.813C479.99 225.427 481.353 228.923 482.436 232.247C478.927 233.032 475.14 233.664 471.149 234.134C473.727 230.126 476.147 226.019 478.372 221.813ZM464.581 234.748C457.251 235.261 449.876 235.256 442.545 234.79C438.379 228.824 434.67 222.55 431.469 216.037C434.655 209.537 438.336 203.275 442.483 197.319C449.82 196.776 457.202 196.774 464.539 197.322C468.65 203.278 472.326 209.524 475.585 215.965C472.364 222.461 468.663 228.736 464.581 234.748ZM481.049 168.981C488.592 173.246 485.235 188.394 483.587 194.982C478.567 193.846 473.115 193.001 467.408 192.476C464.083 187.835 460.638 183.615 457.18 179.962C462.25 175.17 473.578 164.757 481.049 168.981Z" fill="#53C1DE" fill-opacity="0.2"/>
<path d="M127.556 151.818C127.556 151.818 122.579 154.769 131.167 155.551C141.571 156.489 146.879 156.211 158.304 153.853C158.304 153.853 161.336 155.633 165.559 157.14C140.018 168.425 107.46 157.745 127.556 151.818ZM124.254 137.866C124.254 137.866 118.682 142.047 127.275 142.732C138.387 143.616 147.153 143.523 162.287 140.351C162.287 140.351 164.409 142.383 167.722 143.449C136.792 152.966 102.129 145.533 124.254 137.866Z" fill="#5382A1" fill-opacity="0.2"/>
<path d="M150.291 113.352C156.713 120.356 148.786 126.95 148.786 126.95C148.786 126.95 164.783 118.482 157.272 108.46C150.257 99.1144 144.907 94.5107 173.374 77.6444C173.374 77.6441 128.519 89.5866 150.291 113.352Z" fill="#E76F00" fill-opacity="0.2"/>
<path d="M184.93 160.982C184.93 160.982 188.674 163.889 180.909 166.363C166.143 171.061 119.305 173.375 106.223 168.115C101.521 166.225 110.263 163.28 113.016 162.643C115.887 161.972 117.533 162.051 117.533 162.051C112.288 158.58 83.9838 169.793 103.212 172.427C155.649 179.614 198.578 166.678 184.93 160.982ZM129.621 123.206C129.621 123.206 105.853 129.24 121.27 130.923C127.78 131.636 140.734 131.17 152.791 129.927C162.644 128.906 172.528 126.969 172.528 126.969C172.528 126.969 169.067 128.497 166.571 130.229C142.442 136.959 95.6543 135.053 109.039 128.408C120.358 122.792 129.621 123.206 129.621 123.206ZM172.651 145.651C197.105 132.641 185.589 120.878 177.668 122.663C175.726 123.1 174.863 123.461 174.863 123.461C174.863 123.461 175.572 122.34 176.946 121.832C192.589 116.106 204.921 137.158 172.163 146.291C172.163 146.291 172.541 145.951 172.651 145.651Z" fill="#5382A1" fill-opacity="0.2"/>
<path d="M156.631 51.654C156.631 51.654 170.452 64.7309 144.072 85.8473C122.918 102.785 139.509 111.838 144.496 122.476C131.904 111.744 122.645 102.259 128.674 93.1208C137.523 79.7072 162.394 72.7687 156.631 51.654Z" fill="#E76F00" fill-opacity="0.2"/>
<path d="M132.771 180.438C156.386 181.404 192.596 178.377 193.325 167.569C193.325 167.569 191.725 171.694 173.911 175.316C153.813 179.399 128.967 179.491 114.205 177.451C114.205 177.451 117.25 179.8 132.771 180.438Z" fill="#5382A1" fill-opacity="0.2"/>
<g clip-path="url(#clip0_5_884)">
<path d="M657.25 457H614.75C604.395 457 596 465.395 596 475.75V518.25C596 528.605 604.395 537 614.75 537H657.25C667.605 537 676 528.605 676 518.25V475.75C676 465.395 667.605 457 657.25 457Z" fill="#F03C2E" fill-opacity="0.2"/>
<mask id="mask0_5_884" style="mask-type:luminance" maskUnits="userSpaceOnUse" x="604" y="465" width="64" height="64">
<path d="M667.25 465.75H604.75V528.25H667.25V465.75Z" fill="white"/>
</mask>
<g mask="url(#mask0_5_884)">
<path d="M666.07 494.217L638.783 466.93C638.41 466.556 637.966 466.259 637.478 466.057C636.989 465.855 636.466 465.751 635.937 465.751C635.409 465.751 634.886 465.855 634.397 466.057C633.909 466.259 633.465 466.556 633.092 466.93L627.428 472.594L634.615 479.781C636.287 479.195 638.201 479.596 639.533 480.928C640.167 481.563 640.61 482.364 640.811 483.239C641.011 484.113 640.962 485.027 640.668 485.875L647.596 492.803C649.271 492.225 651.205 492.598 652.543 493.939C652.988 494.384 653.341 494.913 653.581 495.494C653.822 496.075 653.946 496.698 653.946 497.327C653.945 497.956 653.821 498.579 653.581 499.16C653.34 499.741 652.987 500.269 652.542 500.714C652.097 501.159 651.569 501.511 650.988 501.752C650.406 501.993 649.784 502.117 649.155 502.116C648.526 502.116 647.902 501.992 647.321 501.752C646.74 501.511 646.212 501.158 645.767 500.713C644.361 499.307 644.014 497.236 644.725 495.504L638.264 489.043V506.045C638.733 506.277 639.161 506.583 639.533 506.951C639.978 507.396 640.331 507.924 640.571 508.505C640.812 509.086 640.936 509.709 640.936 510.338C640.936 510.967 640.812 511.59 640.571 512.171C640.331 512.752 639.978 513.28 639.533 513.725C639.088 514.169 638.56 514.522 637.979 514.763C637.398 515.004 636.775 515.128 636.146 515.128C635.517 515.128 634.895 515.004 634.314 514.763C633.732 514.522 633.204 514.169 632.76 513.725C632.314 513.28 631.961 512.752 631.72 512.171C631.479 511.59 631.355 510.967 631.355 510.338C631.355 509.709 631.479 509.086 631.72 508.505C631.961 507.924 632.314 507.396 632.76 506.951C633.222 506.49 633.736 506.141 634.328 505.906V488.746C633.758 488.512 633.222 488.166 632.76 487.701C632.087 487.03 631.63 486.173 631.446 485.24C631.263 484.308 631.361 483.341 631.728 482.465L624.639 475.379L605.928 494.07C605.554 494.444 605.257 494.888 605.054 495.376C604.852 495.865 604.748 496.388 604.748 496.917C604.748 497.446 604.852 497.969 605.054 498.458C605.257 498.946 605.554 499.39 605.928 499.764L633.217 527.049C633.59 527.423 634.034 527.719 634.522 527.922C635.011 528.124 635.534 528.228 636.062 528.228C636.591 528.228 637.114 528.124 637.603 527.922C638.091 527.719 638.535 527.423 638.908 527.049L666.07 499.93C666.444 499.556 666.741 499.112 666.944 498.624C667.146 498.135 667.25 497.612 667.25 497.083C667.25 496.554 667.146 496.031 666.944 495.542C666.741 495.054 666.444 494.61 666.07 494.236" fill="white" fill-opacity="0.2"/>
</g>
</g>
<g clip-path="url(#clip1_5_884)">
<path d="M1449.25 203H1406.75C1396.39 203 1388 211.395 1388 221.75V264.25C1388 274.605 1396.39 283 1406.75 283H1449.25C1459.61 283 1468 274.605 1468 264.25V221.75C1468 211.395 1459.61 203 1449.25 203Z" fill="#242938" fill-opacity="0.6"/>
<path d="M1398.54 234.315C1398.54 234.315 1397.06 233.248 1398.83 231.824L1402.97 228.126C1402.97 228.126 1404.15 226.88 1405.4 227.965L1443.57 256.865V270.723C1443.57 270.723 1443.56 272.899 1440.76 272.659L1398.54 234.315Z" fill="#2489CA" fill-opacity="0.6"/>
<path d="M1408.37 243.248L1398.54 252.192C1398.54 252.192 1397.53 252.944 1398.54 254.288L1403.1 258.443C1403.1 258.443 1404.19 259.608 1405.79 258.283L1416.22 250.374L1408.37 243.248Z" fill="#1070B3" fill-opacity="0.6"/>
<path d="M1425.65 243.322L1443.69 229.543L1443.58 215.759C1443.58 215.759 1442.8 212.751 1440.23 214.317L1416.22 236.17L1425.65 243.322Z" fill="#0877B9" fill-opacity="0.6"/>
<path d="M1440.76 272.678C1441.81 273.75 1443.08 273.399 1443.08 273.399L1457.14 266.47C1458.94 265.243 1458.69 263.72 1458.69 263.72V222.343C1458.69 220.525 1456.83 219.896 1456.83 219.896L1444.64 214.021C1441.98 212.375 1440.23 214.317 1440.23 214.317C1440.23 214.317 1442.48 212.702 1443.58 215.759V270.47C1443.58 270.847 1443.49 271.216 1443.33 271.549C1443.01 272.197 1442.32 272.801 1440.65 272.548L1440.76 272.678Z" fill="#3C99D4"/>
</g>
<path d="M1411.25 375.375L1391.88 360.125L1401.5 342.25L1429.12 353L1411.25 375.375Z" fill="url(#paint0_linear_5_884)" fill-opacity="0.5"/>
<path d="M1471 334.375L1469.5 380.625L1438.75 393L1420.25 381L1447.25 353L1435.5 327L1446.12 314.25L1471 334.375Z" fill="url(#paint1_linear_5_884)" fill-opacity="0.5"/>
<path d="M1471 334.375L1446.63 363.125L1435.5 327L1446.13 314.25L1471 334.375Z" fill="url(#paint2_linear_5_884)" fill-opacity="0.5"/>
<path d="M1429.5 379.375L1397.5 391L1402.63 373L1409.25 350.75L1391 344.625L1402.63 313L1427.62 316L1452.37 344.25L1429.5 379.375Z" fill="url(#paint3_linear_5_884)" fill-opacity="0.5"/>
<path d="M1456 328H1406V378H1456V328Z" fill="black" fill-opacity="0.5"/>
<path d="M1410.75 368.625H1429.5V371.75H1410.75V368.625ZM1424.12 338.25V334.5H1413.87V338.25H1416.75V351.375H1413.87V355.25H1424.12V351.375H1421.25V338.25H1424.12ZM1434.13 355.5C1432.7 355.564 1431.28 355.263 1430 354.625C1428.95 354.048 1428.02 353.286 1427.25 352.375L1430.12 349.125C1430.64 349.695 1431.23 350.199 1431.88 350.625C1432.48 350.98 1433.17 351.153 1433.88 351.125C1434.65 351.184 1435.4 350.856 1435.88 350.25C1436.45 349.504 1436.72 348.564 1436.63 347.625V334.25H1441.25V347.75C1441.3 348.856 1441.13 349.96 1440.75 351C1440.42 352.055 1439.82 353.004 1439 353.75C1437.58 354.802 1435.89 355.411 1434.13 355.5Z" fill="white" fill-opacity="0.5"/>
<defs>
<linearGradient id="paint0_linear_5_884" x1="1391.88" y1="1998.5" x2="5109.37" y2="1998.5" gradientUnits="userSpaceOnUse">
<stop offset="0.26" stop-color="#F97A12"/>
<stop offset="0.46" stop-color="#B07B58"/>
<stop offset="0.72" stop-color="#577BAE"/>
<stop offset="0.91" stop-color="#1E7CE5"/>
<stop offset="1" stop-color="#087CFA"/>
</linearGradient>
<linearGradient id="paint1_linear_5_884" x1="1437.75" y1="3034.25" x2="8003.12" y2="4542.64" gradientUnits="userSpaceOnUse">
<stop stop-color="#F97A12"/>
<stop offset="0.07" stop-color="#CB7A3E"/>
<stop offset="0.15" stop-color="#9E7B6A"/>
<stop offset="0.24" stop-color="#757B91"/>
<stop offset="0.33" stop-color="#537BB1"/>
<stop offset="0.43" stop-color="#387CCC"/>
<stop offset="0.54" stop-color="#237CE0"/>
<stop offset="0.66" stop-color="#147CEF"/>
<stop offset="0.79" stop-color="#0B7CF7"/>
<stop offset="1" stop-color="#087CFA"/>
</linearGradient>
<linearGradient id="paint2_linear_5_884" x1="4210.5" y1="5091.75" x2="1414.41" y2="681.448" gradientUnits="userSpaceOnUse">
<stop stop-color="#FE315D"/>
<stop offset="0.08" stop-color="#CB417E"/>
<stop offset="0.16" stop-color="#9E4E9B"/>
<stop offset="0.25" stop-color="#755BB4"/>
<stop offset="0.34" stop-color="#5365CA"/>
<stop offset="0.44" stop-color="#386DDB"/>
<stop offset="0.54" stop-color="#2374E9"/>
<stop offset="0.66" stop-color="#1478F3"/>
<stop offset="0.79" stop-color="#0B7BF8"/>
<stop offset="1" stop-color="#087CFA"/>
</linearGradient>
<linearGradient id="paint3_linear_5_884" x1="2618.5" y1="2191.75" x2="9350.95" y2="9087.48" gradientUnits="userSpaceOnUse">
<stop stop-color="#FE315D"/>
<stop offset="0.04" stop-color="#F63462"/>
<stop offset="0.1" stop-color="#DF3A71"/>
<stop offset="0.17" stop-color="#C24383"/>
<stop offset="0.29" stop-color="#AD4A91"/>
<stop offset="0.55" stop-color="#755BB4"/>
<stop offset="0.92" stop-color="#1D76ED"/>
<stop offset="1" stop-color="#087CFA"/>
</linearGradient>
<clipPath id="clip0_5_884">
<rect width="80" height="80" fill="white" transform="translate(596 457)"/>
</clipPath>
<clipPath id="clip1_5_884">
<rect width="80" height="80" fill="white" transform="translate(1388 203)"/>
</clipPath>
</defs>
</svg>
