<svg width="821" height="504" viewBox="0 0 821 504" fill="none" xmlns="http://www.w3.org/2000/svg">
<g clip-path="url(#clip0_3_2)">
<mask id="mask0_3_2" style="mask-type:luminance" maskUnits="userSpaceOnUse" x="130" y="10" width="608" height="492">
<path d="M130.303 20.4019L730.228 10.9139L737.834 491.854L137.909 501.342L130.303 20.4019Z" fill="white"/>
</mask>
<g mask="url(#mask0_3_2)">
<path d="M270.78 462.257C229.218 458.308 191.658 437.398 169.689 404.988C158.816 388.947 151.495 369.783 153.667 348.207C160.35 281.822 186.016 282.473 193.184 227.682C200.353 172.892 145.44 139.432 160.014 79.9737C174.587 20.515 231.067 23.3284 264.482 26.5063C328.449 32.5893 356.668 109.115 446.537 128.967C536.406 148.818 613.989 107.008 662.155 128.332C704.517 147.087 748.21 202.393 725.896 249.277C703.581 296.16 685.721 320.115 689.695 340.925C693.669 361.735 737.682 394.329 690.318 452.08C630.644 524.84 383.765 472.99 270.78 462.257Z" fill="#E4EAF6" fill-opacity="0.68"/>
</g>
<mask id="mask1_3_2" style="mask-type:luminance" maskUnits="userSpaceOnUse" x="-23" y="-24" width="857" height="550">
<path d="M798.689 -23.8018L-22.4201 33.9371L12.1347 525.343L833.243 467.604L798.689 -23.8018Z" fill="white"/>
</mask>
<g mask="url(#mask1_3_2)">
<mask id="mask2_3_2" style="mask-type:luminance" maskUnits="userSpaceOnUse" x="32" y="12" width="830" height="520">
<path d="M32.4823 39.1469L845.669 12.9209L861.285 505.375L48.0986 531.601L32.4823 39.1469Z" fill="white"/>
</mask>
<g mask="url(#mask2_3_2)">
<path d="M595.934 275.749C595.934 275.749 639.759 274.336 642.139 274.259C651.269 273.965 669.313 286.635 660.61 331.807C651.907 376.979 639.188 437.576 639.188 437.576L478.32 442.764L509.453 278.539L595.934 275.749Z" fill="#B7A290"/>
<path d="M642.137 274.259C651.268 273.965 669.313 286.635 660.61 331.807C651.907 376.979 639.188 437.576 639.188 437.576L599.112 438.868C599.112 438.868 611.637 376.592 621.485 326.908C631.333 277.225 635.944 274.459 642.137 274.259Z" fill="#957C6B"/>
<path d="M587.204 411.857C584.467 413.031 579.202 412.115 579.202 412.115C578.547 419.372 575.983 437.081 575.983 437.081L538.755 438.282L557.091 289.907L580.827 276.237L601.165 275.581C601.165 275.581 602.188 275.548 603.924 275.492C596.712 285.279 584.488 296.363 573.435 303.773C572.534 309.228 569.378 325.723 569.378 325.723C579.432 322.391 612.491 308.966 611.844 333.978C611.14 357.183 602.634 379.524 587.204 411.857Z" fill="#957C6B"/>
<path d="M577.887 190.172C585.239 189.86 607.071 190.957 610.932 202.851C613.831 213.735 613.418 235.717 609.241 250.494C606.342 259.463 572.751 296.306 559.012 298.351C560.483 281.29 559.961 221.46 559.961 221.46L577.887 190.172Z" fill="#38302D"/>
<path d="M559.013 298.351C559.282 295.236 559.483 290.687 559.634 285.345L578.692 249.2C579.676 244.364 581.432 236.389 581.378 234.591C588.297 236.628 592.769 248.805 595.134 258.64C598.417 259.037 605.433 255.303 609.241 250.495C606.342 259.464 572.752 296.306 559.013 298.351Z" fill="#201C1C"/>
<path d="M524.852 302.38L564.009 288.419L556.636 329.386C541.102 344.285 534.074 346.735 531.106 344.686C524.717 341.373 526.58 329.697 529.313 325.672L524.852 302.38Z" fill="#E0C1AD"/>
<path d="M529.488 326.588L524.852 302.381L564.009 288.42L562.343 297.679C555.717 310.351 542.779 325.225 529.488 326.588Z" fill="#C08C72"/>
<path d="M480.76 231.831C482.197 247.927 482.866 268.02 480.501 285.543C486.32 301.285 517.528 315.523 535.475 308.967C552.231 301.822 563.149 292.157 567.605 284.901C573.126 290.71 587.37 288.351 592.883 266.449C594.944 256.892 587.372 245.203 571.792 250.525C573.194 242.071 564.307 212.242 564.307 212.242C564.307 212.242 518.37 206.41 488.155 215.259C482.67 217.708 480.245 225.39 480.76 231.831Z" fill="#E0C1AD"/>
<path d="M515.278 278.198C512.106 275.277 507.623 273.214 503.237 275.069C500.87 275.967 503.922 280.001 503.922 280.001C505.037 281.481 511.96 281.382 515.882 280.168C516.543 279.632 515.278 278.198 515.278 278.198Z" fill="#B7795F"/>
<path d="M481.987 235.916L480.784 232.122C480.776 232.028 480.769 231.926 480.761 231.832C480.246 225.391 482.671 217.708 488.156 215.259C518.371 206.41 564.307 212.243 564.307 212.243C564.307 212.243 573.195 242.071 571.793 250.525C573.269 256.588 568.403 272.561 565.751 274.846C566.759 270.933 566.477 258.374 565.6 252.27C564.408 245.244 562.285 235.143 559.959 227.552C555.769 228.855 545.72 230.573 532.415 229.233C507.04 223.593 492.578 229.012 481.987 235.916Z" fill="#C08C72"/>
<path d="M575.169 189.5C575.773 183.267 580.479 174.763 580.479 174.763C584.62 171.265 600.765 172.918 611.458 182.299C603.442 180.348 582.804 181.699 577.395 192.84C574.535 193.323 575.169 189.5 575.169 189.5Z" fill="#38302D"/>
<path d="M550.528 248.085L526.023 252.824C527.353 253.175 545.999 254.099 550.528 248.085Z" fill="#C08C72"/>
<path d="M532.733 256.156C533.661 259.188 536.86 260.888 539.877 259.955C542.895 259.022 544.588 255.807 543.66 252.776C542.732 249.744 539.532 248.043 536.515 248.977C533.497 249.91 531.805 253.125 532.733 256.156Z" fill="#C08C72"/>
<path d="M526.023 252.824C526.885 250.503 533.041 247.491 539.762 246.834C543.288 246.533 548.538 247.753 550.528 248.085L526.023 252.824Z" fill="#38302D"/>
<path d="M531.399 255.459C532.328 258.49 535.527 260.191 538.545 259.257C541.562 258.324 543.254 255.109 542.326 252.078C541.398 249.047 538.199 247.346 535.182 248.279C532.165 249.213 530.471 252.427 531.399 255.459Z" fill="#38302D"/>
<path d="M486.151 249.514C486.514 251.062 487.282 252.405 490.763 253.65C493.478 254.535 501.45 256.319 501.45 256.319L486.151 249.514Z" fill="#C08C72"/>
<path d="M491.359 256.068C492.099 258.484 494.092 260.011 495.811 259.479C497.53 258.946 498.324 256.556 497.583 254.141C496.843 251.725 494.85 250.198 493.131 250.73C491.411 251.262 490.618 253.652 491.359 256.068Z" fill="#C08C72"/>
<path d="M486.152 249.514C493.147 244.77 498.196 253.428 501.45 256.318L486.152 249.514Z" fill="#38302D"/>
<path d="M490.429 255.203C491.169 257.619 493.162 259.147 494.882 258.614C496.601 258.082 497.394 255.692 496.654 253.276C495.913 250.861 493.92 249.333 492.201 249.866C490.482 250.398 489.689 252.788 490.429 255.203Z" fill="#38302D"/>
<path d="M589.653 268.237C590.211 263.884 590.128 256.237 574.85 257.389C573.749 258.716 572.091 262.773 572.091 262.773C576.034 262.062 585.135 259.247 587.394 263.741C587.97 265.21 588.625 268.174 588.803 270.4C589.352 269.723 589.653 268.237 589.653 268.237Z" fill="#C08C72"/>
<path d="M573.788 262.287C575.139 263.261 581.528 269.61 571.651 272.443C575.367 272.745 583.988 269.465 578.349 261.341C576.389 260.654 573.788 262.287 573.788 262.287Z" fill="#C08C72"/>
<g style="mix-blend-mode:overlay">
<path d="M507.546 262.629C506.415 264.887 503.41 270.267 503.122 270.895C502.953 271.752 509.095 272.431 509.697 271.007C510.408 269.231 510.253 261.92 510.169 261.158C510.035 260.072 508.508 260.782 507.546 262.629Z" fill="white"/>
</g>
<path d="M526.389 249.944C527.695 248.14 532.701 244.859 536.152 243.525" stroke="#F1E3D9" stroke-width="1.038" stroke-miterlimit="10"/>
<path d="M501.892 255.232C501.368 253.499 498.524 250.303 496.353 248.98" stroke="#F1E3D9" stroke-width="0.599" stroke-miterlimit="10"/>
<path d="M523.671 239.465C522.498 239.84 521.153 239.403 520.598 238.299C519.484 236.077 519.942 232.621 523.227 231.07C528.548 228.522 551.999 225.787 564.562 242.07C560.16 239.807 545.952 232.343 523.671 239.465Z" fill="#C08C72"/>
<path d="M521.71 238.451C520.807 238.79 519.731 238.587 519.156 237.811C517.602 235.713 517.684 231.819 521.145 229.989C526.345 227.2 549.649 223.396 562.935 239.088C558.417 237.021 543.789 230.17 521.71 238.451Z" fill="#38302D"/>
<path d="M502.392 233.377C497.052 230.899 482.306 230.91 479.568 239.048C479.816 240.119 481.288 240.407 482.678 239.627C485.043 237.947 493.95 237.713 504.519 240.663C506.4 240.373 506.689 235.499 502.392 233.377Z" fill="#C08C72"/>
<path d="M572.16 250.288C573.023 244.387 571.37 236.088 569.589 230.706C573.557 225.935 576.327 221.429 578.191 217.182L589.777 228.984C589.777 228.984 582.675 246.546 578.692 249.2C577.912 254.964 569.063 271.316 567.202 272.329C567.202 272.329 571.363 254.869 572.16 250.288Z" fill="#38302D"/>
<path d="M568.683 249.931C568.386 242.581 562.082 217.762 562.082 217.762L577.888 190.172C581.627 197.295 582.933 206.376 578.191 217.183C576.327 221.43 573.557 225.936 569.589 230.707C571.37 236.089 573.023 244.387 572.16 250.288C571.363 254.869 567.202 272.329 567.202 272.329C567.202 272.329 568.21 257.55 568.683 249.931Z" fill="#201C1C"/>
<path d="M576.65 186.627C579.58 193.355 584.674 206.709 562.839 220.812C550.295 223.897 536.696 222.771 518.418 218.391C510.714 216.631 495.855 215.775 487.182 219.986C484.993 224.808 482.069 258.136 482.06 259.973C470.76 247.101 456.905 224.555 453.533 211.42C454.097 204.046 460.382 184.868 460.382 184.868C463.799 179.011 508.605 154.455 530.238 149.943C540.932 147.288 558.371 151.053 576.65 186.627Z" fill="#38302D"/>
<path d="M558.974 202.736C559.817 202.884 560.654 203.041 561.523 203.151C560.69 203.1 559.836 202.942 558.974 202.736Z" fill="#201C1C"/>
<path d="M453.533 211.42C453.796 207.974 455.309 201.954 456.845 196.515C470.964 183.667 497.938 180.858 508.875 187.665C532.634 204.744 545.909 205.87 559.619 205.894C535.997 210.683 516.172 202.664 500.55 197.028C481.449 190.727 459.002 208.134 455.45 217.208C454.646 215.142 453.988 213.191 453.533 211.42Z" fill="#201C1C"/>
<path d="M471.958 236.569C475.005 219.007 485.693 216.874 498.575 217.192L498.574 217.195C494.384 217.582 490.365 218.44 487.182 219.985C485.385 223.943 483.097 247.084 482.327 256.279C482.327 256.279 472.375 239.915 471.958 236.569Z" fill="#201C1C"/>
<path d="M503.913 232.068C498.707 229.21 483.98 228.153 480.825 236.072C481.018 237.158 482.474 237.552 483.902 236.874C486.351 235.369 495.259 235.782 505.662 239.49C507.556 239.337 508.096 234.496 503.913 232.068Z" fill="#38302D"/>
<path d="M586.11 237.82C584.358 241.091 581.373 248.369 578.691 249.199C580.446 244.923 581.432 236.389 581.378 234.591C582.709 234.983 584.825 236.245 586.11 237.82Z" fill="#201C1C"/>
<path d="M526.183 295.08C523.29 296.677 519.04 297 518.335 296.842" stroke="#C08C72" stroke-width="1.197" stroke-miterlimit="10"/>
<path d="M529.632 293.238C525.75 288.58 514.548 291.276 508.992 292.812" stroke="#95624E" stroke-width="1.964" stroke-miterlimit="10"/>
<path d="M579.014 318.718C563.404 321.069 557.612 323.966 557.612 323.966C552.771 333.152 541.59 341.897 530.388 339.576C527.243 338.671 526.283 332.122 529.488 326.588L528.948 323.766C526.883 323.173 523.4 321.995 521.514 321.646C520.331 324.168 496.825 372.372 496.825 372.372C494.729 382.785 475.011 440.337 475.011 440.337L562.973 437.501L576.285 356.124L579.014 318.718Z" fill="#FFC107"/>
<path d="M554.188 339.472L573.341 374.115C573.341 374.115 534.23 402.266 539.929 397.799C539.929 397.799 532.153 391.494 531.553 390.377C534.336 383.093 548.085 353.245 554.188 339.472Z" fill="#7E651B"/>
<path d="M521.514 321.647C514.042 318.816 491.884 332.974 482.557 344.401C471.775 353.556 437.03 387.26 430.543 391.857C422.11 397.307 394.089 426.129 367.862 428.365C368.514 434.371 372.678 433.31 372.678 433.31L418.55 430.342C444.369 419.572 492.857 378.219 496.824 372.373C503.366 360.419 521.514 321.647 521.514 321.647Z" fill="#CCA795"/>
<path d="M521.514 321.646C514.016 319.542 495.509 327.558 469.578 353.951C465.246 358.359 449.141 374.041 449.141 374.041C453.448 382.016 464.789 394.969 473.604 395.914C495.672 374.9 496.825 372.372 496.825 372.372C496.825 372.372 519.443 334.959 521.514 321.646Z" fill="#FFC107"/>
<path d="M496.826 372.372C498.877 365.25 507.323 346.155 507.323 346.155C496.776 358.76 489.572 377.183 463.117 392.63C464.073 396.195 469.157 398.993 469.157 398.993C473.605 395.914 491.6 378.962 496.826 372.372Z" fill="#7E651B"/>
<path d="M478.828 435.033C476.163 417.576 423.128 403.238 421.239 436.891C427.778 436.68 478.828 435.033 478.828 435.033Z" fill="#3F3F44"/>
<path d="M526.39 249.944C527.695 248.14 532.701 244.859 536.152 243.525" stroke="#F1E3D9" stroke-width="1.038" stroke-miterlimit="10"/>
<path d="M482.073 262.227C482.066 263.374 481.955 266.776 481.899 268.422C484.023 270.145 486.675 271.42 489.996 271.968C492.328 272.205 494.64 271.995 496.779 271.334C501.236 269.955 504.934 266.598 506.529 261.21C507.062 259.915 508.131 259.095 509.831 258.725C513.497 257.934 517.962 259.567 518.685 260.309L519.316 260.957C523.395 270.574 532.53 274.064 543.609 272.044C544.151 271.904 544.674 271.757 545.185 271.599C556.922 267.966 560.537 259.371 561.206 251.939C562.785 251.767 564.746 251.511 565.399 251.241C566.485 250.906 569.654 244.873 568.291 242.224C565.928 241.071 556.498 238.716 549.673 238.502L549.688 238.509C543.555 237.83 538.001 238.617 533.216 240.097C525.681 242.43 520.043 246.464 517.031 249.126C517.08 251.257 517.289 253.222 517.617 255.054C514.972 254.229 511.69 253.864 508.94 254.452C508.382 254.572 507.864 254.739 507.365 254.927C507.36 253.419 507.242 251.822 506.969 250.111C503.147 246.475 494.396 240.188 483.718 241.934C483.55 243.527 483.325 245.663 483.241 246.463C492.14 244.433 499.602 249.505 502.879 252.292C503.183 255.068 503.031 257.534 502.466 259.642C502.437 259.714 502.401 259.778 502.374 259.851L501.624 261.9L501.637 261.905C500.388 264.48 498.321 266.289 495.501 267.162C493.963 267.638 492.303 267.797 490.566 267.637C486.908 267.002 484.112 265.213 482.073 262.227ZM521.478 251.098C524.031 249.106 528.544 246.111 534.494 244.27C541.764 242.021 549.188 242.072 556.594 244.418C557.006 246.928 557.352 251.092 556.225 255.318C554.603 261.402 550.573 265.363 543.907 267.426C543.51 267.55 543.103 267.666 542.684 267.775C538.22 268.568 532.01 268.702 527.454 264.968C525.638 263.481 524.223 261.438 523.208 258.93L523.312 258.828L523.081 258.589C522.247 256.418 521.697 253.919 521.478 251.098Z" fill="#C08C72"/>
<g style="mix-blend-mode:overlay" opacity="0.6">
<path d="M520.965 251.575C522.202 255.61 526.46 257.874 530.476 256.631C534.493 255.388 536.747 251.109 535.511 247.073C534.275 243.038 530.017 240.774 526 242.017C521.983 243.26 519.729 247.539 520.965 251.575Z" fill="white"/>
</g>
<g style="mix-blend-mode:overlay" opacity="0.6">
<path d="M475.09 251.832C476.121 255.196 479.669 257.084 483.018 256.047C486.366 255.011 488.245 251.445 487.215 248.081C486.184 244.717 482.635 242.829 479.287 243.866C475.939 244.902 474.06 248.468 475.09 251.832Z" fill="white"/>
</g>
<path d="M471.033 254.918C471.371 255.058 472.136 255.147 472.96 255.202C474.619 262.206 478.756 269.292 487.992 270.816C490.325 271.053 492.637 270.844 494.776 270.182C499.233 268.803 502.931 265.445 504.526 260.059C505.059 258.763 506.127 257.944 507.827 257.573C511.493 256.783 515.958 258.415 516.681 259.158L517.312 259.805C521.392 269.422 530.526 272.912 541.605 270.892C542.147 270.753 542.671 270.605 543.182 270.447C554.919 266.815 558.534 258.219 559.203 250.787C560.782 250.616 562.743 250.359 563.396 250.09C564.482 249.754 567.651 243.721 566.288 241.072C563.925 239.92 554.495 237.564 547.67 237.35L547.685 237.357C541.552 236.678 535.997 237.465 531.212 238.947C523.677 241.278 518.04 245.312 515.028 247.975C515.077 250.106 515.285 252.07 515.613 253.902C512.968 253.077 509.687 252.712 506.936 253.3C506.378 253.421 505.86 253.587 505.361 253.775C505.356 252.267 505.239 250.671 504.966 248.959C500.773 244.971 490.657 237.759 478.563 241.5L478.561 241.501C477.138 241.941 475.687 242.548 474.216 243.315C471.383 244.405 468.961 245.63 468.063 246.343C467.291 249.037 470.195 254.676 471.033 254.918ZM521.204 257.778L521.147 257.652L521.077 257.437C520.243 255.266 519.693 252.768 519.474 249.946C522.027 247.954 526.54 244.959 532.49 243.119C539.76 240.869 547.184 240.92 554.59 243.266C555.002 245.776 555.348 249.941 554.221 254.166C552.599 260.251 548.57 264.212 541.904 266.275C541.507 266.398 541.1 266.513 540.681 266.623C536.217 267.416 530.007 267.55 525.45 263.816C523.635 262.33 522.219 260.287 521.204 257.778ZM476.334 247.116C477.498 246.518 478.67 246.034 479.839 245.673L479.085 243.209L479.841 245.673C489.352 242.73 497.428 248.209 500.875 251.14C501.179 253.916 501.028 256.382 500.463 258.491C500.434 258.562 500.397 258.626 500.37 258.7L499.621 260.748L499.634 260.754C498.385 263.328 496.317 265.137 493.497 266.01C491.959 266.486 490.3 266.645 488.563 266.485C483.813 265.66 480.5 262.912 478.436 258.084C476.749 254.137 476.374 249.838 476.334 247.116Z" fill="#2B2929"/>
<path d="M529.385 266.022C527.323 265.549 525.309 264.694 523.546 263.249C521.732 261.762 520.317 259.719 519.302 257.211L519.251 257.093L519.174 256.87C518.341 254.699 517.79 252.201 517.572 249.379C520.125 247.388 524.638 244.392 530.588 242.551C537.858 240.302 545.281 240.354 552.688 242.7C552.69 242.712 552.691 242.727 552.693 242.739C545.918 240.951 539.14 241.061 532.491 243.119C526.541 244.959 522.028 247.954 519.475 249.946C519.694 252.768 520.244 255.265 521.078 257.436L521.147 257.652L521.205 257.777C522.22 260.286 523.636 262.33 525.451 263.816C526.665 264.811 528 265.515 529.385 266.022Z" fill="#1A1919"/>
<path d="M505.034 252.733C504.475 252.854 503.958 253.021 503.458 253.209C503.453 251.701 503.336 250.103 503.062 248.392C500.747 246.189 496.619 243.01 491.354 241.229C497.529 242.813 502.378 246.497 504.967 248.959C505.176 250.271 505.27 251.497 505.316 252.686C505.222 252.703 505.126 252.713 505.034 252.733Z" fill="#1A1919"/>
<path d="M485.936 265.75C481.58 264.777 478.488 262.09 476.534 257.517C474.847 253.569 474.47 249.271 474.431 246.548C475.594 245.951 476.768 245.468 477.937 245.106L477.182 242.643L477.183 242.642L477.938 245.105C478.477 244.939 479.011 244.807 479.54 244.693L479.84 245.673C478.671 246.034 477.498 246.517 476.334 247.115C476.374 249.837 476.75 254.137 478.437 258.084C480.094 261.96 482.572 264.474 485.936 265.75Z" fill="#1A1919"/>
<path d="M479.842 245.673L479.541 244.692C483.43 243.85 487.034 244.362 490.131 245.433C487.045 244.668 483.556 244.524 479.842 245.673Z" fill="#1A1919"/>
<path d="M471.057 254.635C471.081 254.739 471.113 254.844 471.138 254.947C471.105 254.936 471.06 254.928 471.033 254.917C470.931 254.887 470.799 254.775 470.646 254.601C470.782 254.613 470.916 254.626 471.057 254.635Z" fill="#1A1919"/>
<path d="M539.702 270.325C540.244 270.185 540.768 270.038 541.279 269.879C553.015 266.247 556.631 257.652 557.3 250.22C558.879 250.048 560.84 249.792 561.493 249.522C562.579 249.186 565.748 243.154 564.385 240.504C563.978 240.306 563.35 240.071 562.574 239.818C564.261 240.283 565.589 240.73 566.288 241.071C567.651 243.72 564.482 249.754 563.396 250.09C562.743 250.359 560.782 250.615 559.203 250.786C558.534 258.218 554.919 266.814 543.182 270.446C542.671 270.604 542.148 270.752 541.606 270.891C536.65 271.795 532.088 271.586 528.189 270.23C531.641 271.063 535.534 271.085 539.702 270.325Z" fill="#1A1919"/>
<path d="M486.088 270.25C488.421 270.487 490.734 270.277 492.873 269.616C497.33 268.236 501.028 264.88 502.622 259.492C503.156 258.196 504.223 257.377 505.924 257.007C508.46 256.46 511.349 257.073 513.146 257.748C511.521 257.378 509.586 257.193 507.827 257.573C506.127 257.944 505.059 258.763 504.526 260.059C502.931 265.445 499.233 268.803 494.776 270.182C492.637 270.844 490.325 271.053 487.992 270.816C486.791 270.618 485.681 270.322 484.647 269.948C485.115 270.062 485.591 270.167 486.088 270.25Z" fill="#1A1919"/>
<g style="mix-blend-mode:overlay" opacity="0.6">
<path d="M540.162 260.779C540.493 261.857 541.983 262.355 543.492 261.888C545.001 261.42 545.956 260.166 545.625 259.087C545.295 258.008 543.804 257.511 542.295 257.978C540.786 258.446 539.831 259.7 540.162 260.779Z" fill="white"/>
</g>
<g style="mix-blend-mode:overlay" opacity="0.6">
<path d="M488.494 261.654C488.754 262.503 489.964 262.881 491.195 262.5C492.427 262.119 493.216 261.122 492.956 260.273C492.696 259.425 491.486 259.047 490.255 259.427C489.023 259.808 488.234 260.807 488.494 261.654Z" fill="white"/>
</g>
<path d="M561.854 242.879C561.134 242.532 559.587 242.175 558.662 242.307C558.085 242.617 558.737 245.427 558.737 245.427C559.153 245.789 561.173 245.306 561.285 245.255C561.678 244.836 562.14 243.856 561.854 242.879Z" fill="white"/>
<path d="M469.707 247.772C470.213 247.467 471.327 247.098 472.016 247.131C472.462 247.319 472.173 249.432 472.173 249.432C471.892 249.727 470.373 249.511 470.288 249.482C469.969 249.2 469.563 248.51 469.707 247.772Z" fill="white"/>
<path d="M567.941 321.659C548.959 340.102 547.739 371.184 540.035 386.52C531.601 393.193 546.755 430.005 566.114 424.727C572.26 417.671 595.565 360.546 598.68 343.986C601.095 319.677 579.174 317.182 567.941 321.659Z" fill="#E0C1AD"/>
<path d="M567.942 321.66C577.294 317.02 603.814 312.991 599.1 347.305C596.974 358.253 576.934 405.381 576.934 405.381C569.26 406.996 549.943 405.922 535.873 391.871C540.549 379.193 549.049 335.839 567.942 321.66Z" fill="#FFC107"/>
<path d="M571.958 387.163C565.111 377.301 555.547 337.062 554.699 329.538C554.465 327.455 554.608 325.253 554.884 323.105C559.837 313.971 564.919 304.889 566.529 299.308C567.611 295.558 573.099 281.863 572.961 279.723C572.791 277.133 562.818 268.061 562.818 268.061C560.654 268.575 559.572 271.754 562.144 275.546C563.746 277.911 565.303 279.65 565.303 279.65C564.425 282.677 561.752 285.531 561.752 285.531C560.857 283.141 556.467 274.931 556.117 274.277C554.76 272.467 550.211 266.995 550.211 266.995C548.554 265.246 546.836 267.309 547.573 269.862C548.295 272.59 551.828 278.15 551.828 278.15C551.199 277.129 547.062 272.835 545.71 272.179C544.173 271.329 540.523 271.531 544.341 277.292C546.756 280.707 549.5 284.951 549.5 284.951C550.404 286.098 551.725 290.48 551.725 290.48C552.067 292.286 552.103 292.999 552.103 292.999C550.865 289.958 547.545 285.887 547.545 285.887C546.441 284.722 542.297 281.65 542.297 281.65C540.873 281.787 539.722 284.29 543.029 287.875C545.601 290.683 546.932 296.195 547.054 298.206C547.083 300.119 540.559 304.279 539.342 306.072C537.842 308.494 536.422 310.844 537.026 319.601C536.352 323.715 536.252 325.429 535.553 328.998C533.079 347.623 530.025 408.062 557.01 427.37C564.622 434.87 589.261 397.488 571.958 387.163Z" fill="#DFC0AC"/>
<g opacity="0.4">
<path d="M551.828 278.149C552.899 279.87 555.142 284.154 555.142 284.154C555.876 285.907 556.613 287.111 556.613 287.111C556.501 285.588 556.114 283.594 555.81 282.37C554.539 279.386 550.975 273.538 550.385 272.66C549.851 271.67 547.8 268.111 548.253 266.584C547.535 267.1 547.151 268.397 547.573 269.861C548.295 272.589 551.828 278.149 551.828 278.149Z" fill="#BF8B71"/>
<path d="M551.725 290.479C552.067 292.285 552.102 292.999 552.102 292.999C552.37 294.141 552.584 295.22 552.584 295.22C553.106 293.974 553.396 292.477 553.331 291.215C553.136 289.433 553.365 288.034 551.361 284.556C550.04 282.907 542.853 274.982 542.806 272.573C542.438 273.349 542.688 274.798 544.341 277.291C546.756 280.706 549.5 284.95 549.5 284.95C550.404 286.097 551.725 290.479 551.725 290.479Z" fill="#BF8B71"/>
<path d="M547.538 297.158C547.696 298.551 547.675 299.094 547.675 299.094C547.819 299.977 547.923 300.81 547.923 300.81C548.451 299.907 548.803 298.797 548.839 297.838C548.801 296.474 549.094 295.433 547.654 292.651C546.659 291.302 541.169 284.761 541.302 282.935C540.937 283.494 541.044 284.609 542.258 286.621C544.049 289.388 546.058 292.807 546.058 292.807C546.738 293.743 547.538 297.158 547.538 297.158Z" fill="#BF8B71"/>
<path d="M562.596 275.473C564.198 277.838 565.757 279.577 565.757 279.577C564.878 282.605 562.204 285.458 562.204 285.458C562.604 286.624 564.194 287.199 564.194 287.199C565.038 285.604 568.716 279.935 568.716 279.935C567.071 277.675 561.26 271.5 561.502 269.44C560.798 270.826 560.931 273.016 562.596 275.473Z" fill="#BF8B71"/>
</g>
<path d="M285.992 406.284L472.331 400.274C477.274 400.115 481.154 395.959 480.997 390.992L477.36 276.288C477.202 271.32 473.066 267.423 468.123 267.583L281.784 273.592C276.84 273.752 272.961 277.907 273.119 282.875L276.756 397.579C276.914 402.546 281.048 406.443 285.992 406.284Z" fill="#777A82"/>
<path d="M273.91 406.673L460.248 400.664C465.192 400.504 469.072 396.349 468.914 391.381L465.277 276.678C465.119 271.71 460.985 267.813 456.041 267.973L269.702 273.982C264.758 274.142 260.878 278.297 261.036 283.265L264.673 397.968C264.831 402.936 268.965 406.833 273.91 406.673Z" fill="#3F3F44"/>
<path d="M306.42 378.644L406.131 375.428C409.924 375.306 412.901 372.118 412.78 368.307L410.974 311.35C410.853 307.54 407.68 304.549 403.888 304.672L304.177 307.887C300.384 308.01 297.407 311.198 297.528 315.009L299.334 371.966C299.455 375.777 302.628 378.766 306.42 378.644Z" fill="#37383B"/>
<path d="M295.758 379.585L395.469 376.37C399.262 376.247 402.238 373.059 402.118 369.248L400.311 312.292C400.191 308.481 397.018 305.491 393.225 305.613L293.514 308.829C289.721 308.951 286.745 312.14 286.865 315.951L288.671 372.906C288.792 376.717 291.965 379.708 295.758 379.585Z" fill="#2C2D2F"/>
<path d="M329.107 429.614L365.357 428.445L362.12 326.341L325.869 327.51L329.107 429.614Z" fill="#3D3E41"/>
<path d="M329.107 429.614L357.206 428.708L353.968 326.603L325.869 327.51L329.107 429.614Z" fill="#252628"/>
<path d="M309.215 440.119L422.125 436.478L421.812 426.625L308.902 430.266L309.215 440.119Z" fill="#777A82"/>
<path d="M291.09 440.704L404 437.062L403.687 427.209L290.777 430.851L291.09 440.704Z" fill="#333438"/>
<path d="M249.511 458.241L662.432 444.924L661.919 428.743L248.998 442.06L249.511 458.241Z" fill="#957C6B"/>
</g>
</g>
</g>
<defs>
<clipPath id="clip0_3_2">
<rect width="813" height="490" fill="white" transform="translate(0.17657 13.4587) rotate(-0.906073)"/>
</clipPath>
</defs>
</svg>
