<svg width="48" height="48" viewBox="0 0 48 48" fill="none" xmlns="http://www.w3.org/2000/svg">
<g clip-path="url(#clip0_15_117)">
<path d="M36.75 0H11.25C5.0368 0 0 5.0368 0 11.25V36.75C0 42.9632 5.0368 48 11.25 48H36.75C42.9632 48 48 42.9632 48 36.75V11.25C48 5.0368 42.9632 0 36.75 0Z" fill="#242938"/>
<mask id="mask0_15_117" style="mask-type:luminance" maskUnits="userSpaceOnUse" x="7" y="7" width="34" height="34">
<path d="M40.875 7.125H7.125V40.875H40.875V7.125Z" fill="white"/>
</mask>
<g mask="url(#mask0_15_117)">
<path fill-rule="evenodd" clip-rule="evenodd" d="M38.2127 33.4145C36.3771 33.3635 34.953 33.5516 33.7596 34.0537C33.4159 34.1917 32.8644 34.1917 32.8191 34.6243C33.0028 34.8058 33.0249 35.1028 33.186 35.3544C33.4611 35.811 33.9437 36.426 34.3794 36.7451L35.8483 37.7947C36.7434 38.3416 37.7533 38.6613 38.6254 39.2088C39.1305 39.5283 39.6353 39.939 40.1404 40.2815C40.3976 40.464 40.5534 40.7611 40.875 40.8746V40.8056C40.7145 40.601 40.6682 40.3046 40.5083 40.0755L39.8188 39.4143C39.1538 38.5248 38.3269 37.7486 37.4318 37.1105C36.6971 36.6086 35.091 35.9244 34.7925 35.0808L34.7473 35.0296C35.2515 34.9786 35.8483 34.8011 36.3308 34.6642C37.1117 34.4596 37.8227 34.5046 38.6254 34.2995L39.7279 33.98V33.7755C39.3146 33.365 39.0163 32.8173 38.5806 32.43C37.4102 31.4263 36.1239 30.4451 34.7925 29.624C34.0811 29.168 33.1628 28.8708 32.4054 28.4838C32.1293 28.3468 31.6708 28.2783 31.5103 28.0503C31.0961 27.5493 30.8672 26.8871 30.5689 26.2936L28.6869 22.3246C28.2739 21.435 28.0208 20.5453 27.5166 19.7242C25.152 15.8462 22.5808 13.4969 18.6328 11.1926C17.7839 10.7136 16.7741 10.5075 15.7004 10.257L13.979 10.165C13.6112 10.0054 13.2443 9.57189 12.9228 9.36635C11.6145 8.54525 8.24016 6.76602 7.27555 9.11071C6.65562 10.5934 8.19387 12.0531 8.71604 12.8062C9.10703 13.3308 9.6112 13.9238 9.88748 14.5169C10.0418 14.9045 10.0933 15.3155 10.2543 15.7261C10.6211 16.7297 10.9658 17.8479 11.4478 18.7835C11.7051 19.2626 11.9752 19.7651 12.2967 20.1982C12.4804 20.4538 12.8019 20.5633 12.8703 20.9737C12.5488 21.4303 12.5267 22.1139 12.343 22.685C11.5163 25.2628 11.8378 28.4563 13.0082 30.3541C13.376 30.9241 14.2429 32.1793 15.419 31.6998C16.452 31.2892 16.2215 29.9891 16.5199 28.8483C16.5894 28.575 16.5431 28.3923 16.6804 28.2093V28.2605L17.6219 30.1537C18.3334 31.2714 19.5733 32.435 20.6057 33.2111C21.1562 33.6217 21.5925 34.3293 22.2808 34.5798V34.5108H22.2356C22.0976 34.3063 21.8908 34.2142 21.7073 34.0546C21.2942 33.6442 20.8352 33.1421 20.5136 32.6861C19.5501 31.4088 18.7012 29.9941 17.9434 28.5345C17.5756 27.8274 17.2541 27.0517 16.9567 26.3446C16.8178 26.0707 16.8178 25.6595 16.5889 25.5236C16.2442 26.0246 15.74 26.4592 15.4864 27.0748C15.0501 28.0554 15.0048 29.2646 14.8443 30.5193C14.7517 30.5422 14.7929 30.5193 14.7517 30.5703C14.0181 30.3885 13.765 29.6347 13.4897 28.9966C12.8014 27.377 12.6861 24.7766 13.2829 22.9059C13.4434 22.4268 14.1328 20.9212 13.8576 20.465C13.7187 20.0315 13.2608 19.781 13.0077 19.4385C12.7093 19.005 12.3888 18.4578 12.182 17.9788C11.6315 16.7006 11.3563 15.2869 10.759 14.0092C10.4827 13.4161 10.0012 12.8001 9.61069 12.253C9.17444 11.6369 8.6934 11.2034 8.34872 10.4738C8.23399 10.2181 8.07347 9.81219 8.25715 9.53814C8.30241 9.35562 8.39502 9.2825 8.57766 9.24161C8.87605 8.98597 9.72593 9.31012 10.0243 9.44611C10.8732 9.78866 11.5847 10.1077 12.2962 10.5862C12.6177 10.8143 12.9624 11.2478 13.3755 11.3624H13.8581C14.5927 11.5219 15.4184 11.4135 16.1063 11.618C17.323 12.0066 18.4244 12.5761 19.4123 13.1927C22.4188 15.086 24.8985 17.7778 26.5734 20.9947C26.8487 21.5193 26.9634 21.9984 27.2166 22.5459C27.6992 23.6641 28.296 24.8043 28.7769 25.8999C29.2596 26.972 29.7184 28.0678 30.4069 28.9573C30.7515 29.4363 32.1281 29.6868 32.7476 29.9379C33.207 30.1425 33.918 30.3266 34.3322 30.5771C35.112 31.0561 35.8926 31.6036 36.6266 32.1283C36.9934 32.4013 38.1418 32.9718 38.2101 33.4269L38.2127 33.4145ZM14.8047 13.5915C14.4876 13.5887 14.1714 13.6271 13.8643 13.7055V13.7567H13.9095C14.0932 14.1217 14.4147 14.3727 14.6442 14.6923L15.1725 15.7874L15.2178 15.7363C15.5393 15.5083 15.7004 15.1432 15.7004 14.5962C15.5625 14.4366 15.5399 14.2766 15.4251 14.1171C15.2873 13.8891 14.9889 13.7745 14.8047 13.5925V13.5915Z" fill="white"/>
</g>
</g>
<defs>
<clipPath id="clip0_15_117">
<rect width="48" height="48" fill="white"/>
</clipPath>
</defs>
</svg>
