<svg width="49" height="48" viewBox="0 0 49 48" fill="none" xmlns="http://www.w3.org/2000/svg">
<g clip-path="url(#clip0_15_125)">
<path d="M37 0H11.5C5.2868 0 0.25 5.0368 0.25 11.25V36.75C0.25 42.9632 5.2868 48 11.5 48H37C43.2132 48 48.25 42.9632 48.25 36.75V11.25C48.25 5.0368 43.2132 0 37 0Z" fill="#242938"/>
<path d="M38.4025 27.8789C34.5925 28.6645 34.3158 27.374 34.3158 27.374C38.3406 21.4017 40.0242 13.8212 38.5713 11.9662C34.6111 6.90374 27.7542 9.2992 27.6394 9.36115L27.6025 9.36775C26.7651 9.19971 25.9137 9.11099 25.0594 9.10276C23.335 9.07639 22.0272 9.55495 21.0333 10.3077C21.0333 10.3077 8.80147 5.26896 9.371 16.6451C9.4923 19.0657 12.8383 34.9704 16.8329 30.1584C18.3042 28.3891 19.7148 26.9032 19.7148 26.9032C20.4136 27.3685 21.2534 27.6059 22.1328 27.5202L22.2012 27.4623C22.1811 27.6901 22.1905 27.9196 22.2289 28.1452C21.2007 29.2947 21.5039 29.4965 19.4472 29.9197C17.3668 30.3481 18.5903 31.1114 19.3866 31.3118C20.3543 31.5545 22.5929 31.8972 24.1064 29.78L24.0456 30.0211C24.4491 30.3442 24.7311 32.1213 24.6837 33.7323C24.6363 35.3435 24.6046 36.4482 24.9211 37.313C25.2374 38.1779 25.5539 40.1212 28.2565 39.5542C30.5149 39.0704 31.6842 37.814 31.849 35.7232C31.9651 34.2359 32.2261 34.4547 32.2446 33.1259L32.4556 32.4957C32.6967 30.4786 32.4949 29.8287 33.8858 30.1319L34.2246 30.1623C35.2491 30.2084 36.5899 29.9975 37.3756 29.6322C39.0696 28.8466 40.0743 27.5334 38.4038 27.8789H38.4025Z" fill="#336791"/>
<path d="M27.6381 9.11194C27.2162 9.24379 34.4462 6.46864 38.5568 11.7197C40.0071 13.5746 38.3262 21.1552 34.3011 27.1273M24.2684 28.8347C24.163 32.5867 24.2948 36.365 24.6614 37.2722C25.0277 38.1791 25.8149 39.9748 28.5188 39.3973C30.7772 38.9135 31.5998 37.976 31.9559 35.9075L32.7902 29.2935L24.2684 28.8347ZM21.028 10.0256C21.028 10.0256 8.78828 5.02108 9.35781 16.3972C9.4791 18.8177 12.8251 34.7224 16.8197 29.9104C18.2778 28.1529 19.5962 26.778 19.5962 26.778L21.028 10.0256Z" stroke="white" stroke-width="0.943875" stroke-linecap="round" stroke-linejoin="round"/>
<path d="M34.3024 27.1246C34.3024 27.1246 34.5662 28.4167 38.3894 27.6282C40.0598 27.2828 39.0539 28.5959 37.3611 29.3817C35.9716 30.0277 32.8549 30.1925 32.8036 29.3026C32.6717 27.002 34.4436 27.7008 34.3157 27.1246C34.1997 26.6052 33.406 26.0963 32.884 24.8255C32.4265 23.7179 26.6086 15.2146 34.4976 16.4762C34.7877 16.4169 32.4409 8.96158 25.0581 8.85349C17.6753 8.74537 17.9087 17.9304 17.9087 17.9304" stroke="white" stroke-width="0.943875" stroke-linecap="round" stroke-linejoin="bevel"/>
<path d="M22.2025 27.9128C21.1742 29.0624 21.4774 29.2641 19.4209 29.6873C17.3405 30.1157 18.5639 30.8791 19.3602 31.0795C20.3279 31.3221 22.5664 31.6649 24.0799 29.5461C24.5414 28.9002 24.0773 27.8719 23.4445 27.6109C23.1387 27.4844 22.7299 27.3261 22.2053 27.9141L22.2025 27.9128Z" stroke="white" stroke-width="0.943875" stroke-linejoin="round"/>
<path d="M22.1354 27.8932C22.0298 27.2169 22.3568 26.414 22.7061 25.4728C23.2309 24.0622 24.4412 22.6514 23.4735 18.173C22.7524 14.8375 17.91 17.4782 17.91 17.9304C17.91 18.3826 18.1288 20.2244 17.8309 22.3666C17.4393 25.1643 19.6107 27.5294 22.1102 27.2881" stroke="white" stroke-width="0.943875" stroke-linecap="round" stroke-linejoin="round"/>
<path d="M20.9832 17.8631C20.9607 18.0174 21.2665 18.4301 21.6634 18.4854C22.0602 18.5408 22.399 18.2191 22.4215 18.0635C22.4438 17.908 22.138 17.7392 21.7413 17.6839C21.3443 17.6285 21.0029 17.7102 20.9832 17.8631Z" fill="white" stroke="white" stroke-width="0.315"/>
<path d="M33.0646 17.5477C33.0856 17.702 32.7811 18.1146 32.3843 18.17C31.9874 18.2254 31.6459 17.9037 31.6263 17.7481C31.6064 17.5926 31.9098 17.4238 32.3065 17.3684C32.7033 17.3131 33.0447 17.3948 33.0646 17.5477Z" fill="white" stroke="white" stroke-width="0.156938"/>
<path d="M34.4832 16.4785C34.549 17.6914 34.222 18.5154 34.1798 19.8061C34.1193 21.6808 35.0738 23.8271 33.6353 25.976" stroke="white" stroke-width="0.943875" stroke-linecap="round" stroke-linejoin="round"/>
</g>
<defs>
<clipPath id="clip0_15_125">
<rect width="48" height="48" fill="white" transform="translate(0.25)"/>
</clipPath>
</defs>
</svg>
