<svg width="49" height="48" viewBox="0 0 49 48" fill="none" xmlns="http://www.w3.org/2000/svg">
<g clip-path="url(#clip0_15_140)">
<path d="M37.5 0H12C5.7868 0 0.75 5.0368 0.75 11.25V36.75C0.75 42.9632 5.7868 48 12 48H37.5C43.7132 48 48.75 42.9632 48.75 36.75V11.25C48.75 5.0368 43.7132 0 37.5 0Z" fill="#242938"/>
<path d="M16.6396 20.9927C16.6396 21.4491 16.689 21.819 16.7753 22.0905C16.874 22.3618 16.9974 22.6579 17.1701 22.9787C17.2317 23.0773 17.2564 23.1759 17.2564 23.2624C17.2564 23.3858 17.1824 23.5091 17.022 23.6323L16.2449 24.1506C16.1339 24.2244 16.0229 24.2616 15.9242 24.2616C15.8008 24.2616 15.6775 24.1999 15.5541 24.0889C15.3814 23.9038 15.2334 23.7064 15.1101 23.5091C14.9867 23.2993 14.8633 23.0649 14.7276 22.7812C13.7655 23.9162 12.5566 24.4836 11.101 24.4836C10.0648 24.4836 9.23834 24.1875 8.63389 23.5954C8.02945 23.0033 7.72107 22.2139 7.72107 21.2271C7.72107 20.1784 8.09112 19.3273 8.84359 18.6859C9.59607 18.0444 10.5952 17.7237 11.8658 17.7237C12.2852 17.7237 12.7169 17.7607 13.1734 17.8224C13.6298 17.884 14.0985 17.9827 14.592 18.0938V17.1933C14.592 16.2558 14.3946 15.602 14.0122 15.2196C13.6174 14.8372 12.9513 14.6521 12.0015 14.6521C11.5698 14.6521 11.1257 14.7015 10.6692 14.8125C10.2128 14.9235 9.76876 15.0592 9.33702 15.2319C9.13964 15.3183 8.99163 15.3676 8.90526 15.3923C8.81892 15.4169 8.75725 15.4293 8.7079 15.4293C8.53521 15.4293 8.44885 15.3059 8.44885 15.0469V14.4424C8.44885 14.2451 8.47353 14.097 8.53521 14.0107C8.59688 13.9244 8.7079 13.838 8.88061 13.7516C9.31234 13.5296 9.83044 13.3446 10.4349 13.1965C11.0393 13.0362 11.6808 12.9622 12.3592 12.9622C13.8271 12.9622 14.9003 13.2952 15.5911 13.9613C16.2696 14.6275 16.615 15.639 16.615 16.9959V20.9927H16.6396ZM11.6314 22.8677C12.0385 22.8677 12.4579 22.7936 12.902 22.6455C13.3461 22.4976 13.7408 22.2261 14.0739 21.8561C14.2712 21.6218 14.4192 21.3626 14.4933 21.0666C14.5673 20.7705 14.6166 20.4128 14.6166 19.9935V19.4752C14.2589 19.389 13.8765 19.3149 13.4817 19.2656C13.087 19.2163 12.7046 19.1916 12.3222 19.1916C11.4957 19.1916 10.8913 19.3521 10.4842 19.6851C10.0771 20.0181 9.87978 20.4868 9.87978 21.1037C9.87978 21.6834 10.0278 22.1151 10.3362 22.4111C10.6323 22.7196 11.064 22.8677 11.6314 22.8677ZM21.5368 24.1999C21.3148 24.1999 21.1667 24.1628 21.0681 24.0765C20.9694 24.0024 20.883 23.8298 20.8091 23.5954L17.9102 14.06C17.8362 13.8133 17.7992 13.653 17.7992 13.5666C17.7992 13.3692 17.8979 13.2582 18.0952 13.2582H19.3041C19.5384 13.2582 19.6989 13.2952 19.7852 13.3816C19.8838 13.4556 19.9579 13.6283 20.0319 13.8627L22.1042 22.0288L24.0287 13.8627C24.0904 13.6159 24.1643 13.4556 24.2631 13.3816C24.3617 13.3076 24.5344 13.2582 24.7564 13.2582H25.7432C25.9776 13.2582 26.1381 13.2952 26.2367 13.3816C26.3353 13.4556 26.4218 13.6283 26.4711 13.8627L28.4201 22.1274L30.5541 13.8627C30.6281 13.6159 30.7146 13.4556 30.8008 13.3816C30.8994 13.3076 31.0599 13.2582 31.2819 13.2582H32.4291C32.6265 13.2582 32.7375 13.3569 32.7375 13.5666C32.7375 13.6283 32.7251 13.69 32.7128 13.764C32.7006 13.838 32.6758 13.9367 32.6265 14.0724L29.6537 23.6077C29.5796 23.8545 29.4932 24.0148 29.3946 24.0889C29.2959 24.1627 29.1354 24.2123 28.9258 24.2123H27.8649C27.6306 24.2123 27.4703 24.1751 27.3716 24.0889C27.2728 24.0024 27.1866 23.8421 27.1373 23.5954L25.2251 15.639L23.3256 23.583C23.2639 23.8298 23.1898 23.9901 23.0912 24.0765C22.9924 24.1628 22.8197 24.1999 22.5977 24.1999H21.5368ZM37.3881 24.5329C36.7466 24.5329 36.1052 24.4588 35.4883 24.3109C34.8716 24.1628 34.3905 24.0024 34.0697 23.8174C33.8724 23.7064 33.7367 23.583 33.6874 23.472C33.6381 23.361 33.6133 23.2376 33.6133 23.1266V22.4976C33.6133 22.2384 33.7119 22.1151 33.897 22.1151C33.9711 22.1151 34.0451 22.1274 34.119 22.1522C34.1931 22.1767 34.3041 22.2261 34.4274 22.2756C34.8469 22.4604 35.3033 22.6086 35.7844 22.7072C36.2779 22.806 36.7588 22.8553 37.2523 22.8553C38.0295 22.8553 38.6338 22.7196 39.0533 22.4482C39.4727 22.1767 39.6947 21.7821 39.6947 21.2764C39.6947 20.931 39.5837 20.6471 39.3617 20.4127C39.1397 20.1784 38.7203 19.9687 38.1158 19.7713L36.3272 19.2163C35.4266 18.9326 34.7604 18.5131 34.3534 17.9581C33.9463 17.4153 33.7367 16.8109 33.7367 16.1694C33.7367 15.6513 33.8477 15.1949 34.0697 14.8002C34.2917 14.4054 34.5878 14.06 34.9579 13.7887C35.328 13.5049 35.7474 13.2952 36.2408 13.1472C36.7343 12.9992 37.2523 12.9375 37.7951 12.9375C38.0664 12.9375 38.3501 12.9498 38.6216 12.9868C38.9053 13.0238 39.1643 13.0732 39.4234 13.1225C39.6701 13.1842 39.9045 13.2459 40.1265 13.3199C40.3485 13.3939 40.5212 13.4679 40.6446 13.5419C40.8173 13.6406 40.9406 13.7393 41.0147 13.8503C41.0886 13.949 41.1257 14.0847 41.1257 14.2574V14.8372C41.1257 15.0962 41.0271 15.2319 40.842 15.2319C40.7432 15.2319 40.5829 15.1826 40.3733 15.0839C39.6701 14.7632 38.8806 14.6028 38.0048 14.6028C37.3016 14.6028 36.7466 14.7138 36.3641 14.9482C35.9818 15.1826 35.7844 15.5403 35.7844 16.046C35.7844 16.3915 35.9078 16.6875 36.1545 16.9219C36.4011 17.1562 36.8576 17.3906 37.5114 17.6003L39.2631 18.1554C40.1511 18.4391 40.7927 18.8338 41.175 19.3397C41.5573 19.8454 41.7424 20.4251 41.7424 21.0666C41.7424 21.597 41.6314 22.0781 41.4218 22.4976C41.1998 22.917 40.9037 23.2869 40.5212 23.583C40.1389 23.8914 39.6823 24.1134 39.1521 24.2739C38.5969 24.4466 38.0171 24.5329 37.3881 24.5329Z" fill="white"/>
<path fill-rule="evenodd" clip-rule="evenodd" d="M39.7194 30.5278C35.661 33.5254 29.7647 35.1167 24.6947 35.1167C17.5895 35.1167 11.1873 32.4891 6.3518 28.1224C5.96941 27.777 6.31481 27.3082 6.77122 27.5796C12.0015 30.6141 18.453 32.4521 25.1265 32.4521C29.6289 32.4521 34.5756 31.5146 39.1273 29.5903C39.8057 29.2819 40.3854 30.0343 39.7194 30.5278Z" fill="#FF9900"/>
<path fill-rule="evenodd" clip-rule="evenodd" d="M41.4094 28.6036C40.8913 27.9374 37.9802 28.2828 36.6602 28.4431C36.2655 28.4926 36.2038 28.1471 36.5615 27.8881C38.8805 26.2599 42.6922 26.7286 43.1364 27.2712C43.5804 27.8264 43.013 31.6381 40.842 33.4638C40.5088 33.7475 40.1882 33.5994 40.3361 33.2294C40.8296 32.0082 41.9274 29.2572 41.4094 28.6036Z" fill="#FF9900"/>
</g>
<defs>
<clipPath id="clip0_15_140">
<rect width="48" height="48" fill="white" transform="translate(0.75)"/>
</clipPath>
</defs>
</svg>
