<svg width="49" height="48" viewBox="0 0 49 48" fill="none" xmlns="http://www.w3.org/2000/svg">
<g clip-path="url(#clip0_15_136)">
<path d="M37.25 0H11.75C5.5368 0 0.5 5.0368 0.5 11.25V36.75C0.5 42.9632 5.5368 48 11.75 48H37.25C43.4632 48 48.5 42.9632 48.5 36.75V11.25C48.5 5.0368 43.4632 0 37.25 0Z" fill="#2396ED"/>
<path d="M26.9726 22.8981H30.857V19.3836H26.9726V22.8981ZM22.3484 22.8981H26.2327V19.3836H22.3484V22.8981ZM17.8166 22.8981H21.701V19.3836H17.8166V22.8981ZM13.2849 22.8981H17.0767V19.3836H13.2849V22.8981ZM8.66062 22.8981H12.545V19.3836H8.66062V22.8981ZM13.2849 18.6437H17.0767V15.1293H13.2849V18.6437ZM17.8166 18.6437H21.701V15.1293H17.8166V18.6437ZM22.3484 18.6437H26.2327V15.1293H22.3484V18.6437ZM22.3484 14.3894H26.2327V10.875H22.3484V14.3894ZM43.25 21.3259C43.25 21.3259 41.5852 19.7535 38.1633 20.3085C37.7934 17.6264 34.9263 16.0542 34.9263 16.0542C34.9263 16.0542 32.2443 19.2911 34.1864 22.8981C33.6316 23.1756 32.7067 23.5455 31.3194 23.5455H5.88607C5.42364 25.3027 5.42364 36.9557 18.1866 36.9557C27.3425 36.9557 34.1864 32.7015 37.4234 24.9326C42.2326 25.3027 43.25 21.3259 43.25 21.3259Z" fill="white"/>
</g>
<defs>
<clipPath id="clip0_15_136">
<rect width="48" height="48" fill="white" transform="translate(0.5)"/>
</clipPath>
</defs>
</svg>
