<svg width="48" height="48" viewBox="0 0 48 48" fill="none" xmlns="http://www.w3.org/2000/svg">
<g clip-path="url(#clip0_15_40)">
<path d="M36.75 0H11.25C5.0368 0 0 5.0368 0 11.25V36.75C0 42.9632 5.0368 48 11.25 48H36.75C42.9632 48 48 42.9632 48 36.75V11.25C48 5.0368 42.9632 0 36.75 0Z" fill="#242938"/>
<path d="M19.0564 34.2409C19.0564 34.2409 17.6165 35.1173 20.0586 35.368C23.0076 35.7437 24.5668 35.6809 27.8224 35.0552C27.8224 35.0552 28.6988 35.6194 29.8886 36.0572C22.5621 39.1877 13.2954 35.8693 19.0564 34.2409ZM18.1172 30.1712C18.1172 30.1712 16.5516 31.3611 18.9936 31.611C22.1863 31.924 24.6919 31.9868 29.0123 31.111C29.0123 31.111 29.5764 31.7374 30.5151 32.0503C21.687 34.68 11.7933 32.3003 18.1172 30.1718V30.1712ZM35.3991 37.3093C35.3991 37.3093 36.4633 38.1857 34.2092 38.875C30.0137 40.1271 16.6145 40.5034 12.8575 38.875C11.5433 38.3108 14.0474 37.4965 14.861 37.3721C15.6752 37.1843 16.1131 37.1843 16.1131 37.1843C14.6732 36.1823 6.53295 39.2505 11.9805 40.1335C26.9454 42.576 39.2811 39.0692 35.3985 37.3157L35.3991 37.3093ZM19.7451 25.9129C19.7451 25.9129 12.9197 27.5413 17.3024 28.1042C19.1809 28.3541 22.875 28.2921 26.319 28.0414C29.1368 27.7913 31.9609 27.2901 31.9609 27.2901C31.9609 27.2901 30.9587 27.7285 30.2702 28.1665C23.3141 29.9839 9.97701 29.1698 13.7968 27.2912C17.0536 25.7256 19.7451 25.9129 19.7451 25.9129ZM31.9543 32.7381C38.9681 29.1062 35.7113 25.6 33.4571 26.0385C32.8929 26.1636 32.643 26.2886 32.643 26.2886C32.643 26.2886 32.8307 25.9129 33.2693 25.7886C37.7147 24.223 41.2217 30.4847 31.8294 32.9267C31.8294 32.9267 31.8923 32.8639 31.9543 32.7388V32.7381ZM20.4336 42.6306C27.1961 43.0691 37.5276 42.3805 37.7783 39.1864C37.7783 39.1864 37.2782 40.4385 32.2058 41.3779C26.4454 42.4421 19.3065 42.3171 15.1117 41.6278C15.1117 41.6278 15.9881 42.3791 20.4341 42.6298L20.4336 42.6306Z" fill="white"/>
<path d="M27.6909 5.25C27.6909 5.25 31.5729 9.19478 23.9968 15.1424C17.923 19.9635 22.6185 22.719 23.9968 25.8489C20.4278 22.6562 17.8614 19.8379 19.6136 17.208C22.1871 13.328 29.2616 11.4496 27.6909 5.25ZM25.6875 23.2204C27.5031 25.2866 25.1874 27.1652 25.1874 27.1652C25.1874 27.1652 29.8208 24.7866 27.6923 21.8426C25.7509 19.0249 24.2483 17.6472 32.3884 12.9504C32.3884 12.9504 19.5521 16.1432 25.6888 23.2191L25.6875 23.2204Z" fill="#F58219"/>
</g>
<defs>
<clipPath id="clip0_15_40">
<rect width="48" height="48" fill="white"/>
</clipPath>
</defs>
</svg>
