<svg width="48" height="48" viewBox="0 0 48 48" fill="none" xmlns="http://www.w3.org/2000/svg">
<g clip-path="url(#clip0_15_85)">
<path d="M36.75 0H11.25C5.0368 0 0 5.0368 0 11.25V36.75C0 42.9632 5.0368 48 11.25 48H36.75C42.9632 48 48 42.9632 48 36.75V11.25C48 5.0368 42.9632 0 36.75 0Z" fill="#242938"/>
<path d="M39.2897 32.2165C34.6744 38.3659 24.8151 36.2901 18.4941 36.5886C18.4941 36.5886 17.3751 36.6508 16.2481 36.8365C16.2481 36.8365 16.6742 36.6546 17.2177 36.4673C21.6574 34.932 23.7553 34.6236 26.4529 33.238C31.5214 30.6415 36.5659 24.9861 37.5922 19.111C35.6629 24.7615 29.7954 29.6246 24.4528 31.5994C20.7958 32.9488 14.1829 34.2621 14.1819 34.2626C14.185 34.2673 13.9184 34.1243 13.9146 34.1211C9.41724 31.933 9.28747 22.1923 17.4556 19.0525C21.0369 17.6749 24.4624 18.4316 28.3339 17.5101C32.463 16.5283 37.2454 13.4333 39.1892 9.38683C41.3683 15.8503 43.986 25.9626 39.2897 32.2165ZM39.3699 7.38394C38.8206 8.68933 38.1499 9.86565 37.377 10.9178C33.9744 7.42573 29.2252 5.25 23.9758 5.25C13.6498 5.25 5.25 13.6507 5.25 23.9749C5.25 29.3871 7.56017 34.2683 11.2433 37.6898L11.6534 38.053C10.9686 37.4946 10.8633 36.489 11.4183 35.8035C11.9767 35.1178 12.9833 35.0115 13.6684 35.5669C14.3554 36.1234 14.46 37.1316 13.9038 37.8182C13.3497 38.5052 12.3413 38.6089 11.6553 38.0546L11.9343 38.3018C15.1923 41.0449 19.392 42.7018 23.9758 42.7018C33.8458 42.7018 41.9505 35.0209 42.6442 25.3262C43.158 20.5795 41.7561 14.552 39.3699 7.38394Z" fill="#5FB832"/>
</g>
<defs>
<clipPath id="clip0_15_85">
<rect width="48" height="48" fill="white"/>
</clipPath>
</defs>
</svg>
